<svg width="42" height="42" viewBox="0 0 42 42" fill="none" xmlns="http://www.w3.org/2000/svg">
<path d="M26.25 24.5C26.25 27.3997 23.8997 29.75 21 29.75C18.1002 29.75 15.75 27.3997 15.75 24.5C15.75 21.6002 18.1002 19.25 21 19.25C23.8997 19.25 26.25 21.6002 26.25 24.5Z" fill="#1C2E45" fill-opacity="0.6"/>
<path d="M26.25 15.75V10.5H15.75V15.75H7V31.5H15.75C17.15 32.55 19.075 33.25 21 33.25C22.925 33.25 24.85 32.55 26.25 31.5H35V15.75H26.25ZM17.5 12.25H24.5V15.75H17.5V12.25ZM21 31.5C17.15 31.5 14 28.35 14 24.5C14 20.65 17.15 17.5 21 17.5C24.85 17.5 28 20.65 28 24.5C28 28.35 24.85 31.5 21 31.5ZM33.25 19.25H29.75V17.5H33.25V19.25Z" fill="white"/>
</svg>
