<svg width="58" height="62" viewBox="0 0 58 62" fill="none" xmlns="http://www.w3.org/2000/svg">
<path opacity="0.2" d="M6.4375 24.468H51.5625V46.5C51.5625 46.7694 51.4618 47.0154 51.3014 47.1869C51.1431 47.3561 50.9432 47.4375 50.75 47.4375H7.25C7.05685 47.4375 6.85695 47.3561 6.69864 47.1869C6.53822 47.0154 6.4375 46.7694 6.4375 46.5V24.468Z" fill="#FA8232" stroke="#FA8232" stroke-width="2"/>
<path d="M50.75 13.5625H7.25C6.24898 13.5625 5.4375 14.4299 5.4375 15.5V46.5C5.4375 47.5701 6.24898 48.4375 7.25 48.4375H50.75C51.751 48.4375 52.5625 47.5701 52.5625 46.5V15.5C52.5625 14.4299 51.751 13.5625 50.75 13.5625Z" stroke="#FA8232" stroke-width="2" stroke-linecap="round" stroke-linejoin="round"/>
<path d="M38.0625 40.6875H45.3125" stroke="#FA8232" stroke-width="2" stroke-linecap="round" stroke-linejoin="round"/>
<path d="M27.1875 40.6875H30.8125" stroke="#FA8232" stroke-width="2" stroke-linecap="round" stroke-linejoin="round"/>
<path d="M5.4375 23.468H52.5625" stroke="#FA8232" stroke-width="2" stroke-linecap="round" stroke-linejoin="round"/>
</svg>
