<svg width="12" height="14" viewBox="0 0 12 14" fill="none" xmlns="http://www.w3.org/2000/svg">
<path d="M2.41446 0.620605L0.62148 3.01124V11.3785C0.62148 11.6955 0.747415 11.9995 0.971581 12.2237C1.19575 12.4479 1.49978 12.5738 1.8168 12.5738H10.184C10.5011 12.5738 10.8051 12.4479 11.0293 12.2237C11.2534 11.9995 11.3794 11.6955 11.3794 11.3785V3.01124L9.58637 0.620605H2.41446Z" stroke="#F8F8F8" stroke-width="1.22762" stroke-linecap="round" stroke-linejoin="round"/>
<path d="M0.620646 3.01169H11.3785" stroke="#F8F8F8" stroke-width="1.22762" stroke-linecap="round" stroke-linejoin="round"/>
<path d="M8.3901 5.40203C8.3901 6.03606 8.13823 6.64413 7.6899 7.09246C7.24157 7.54079 6.6335 7.79266 5.99946 7.79266C5.36542 7.79266 4.75736 7.54079 4.30902 7.09246C3.86069 6.64413 3.60882 6.03606 3.60882 5.40203" stroke="#F8F8F8" stroke-width="1.22762" stroke-linecap="round" stroke-linejoin="round"/>
</svg>
