<svg width="12" height="13" viewBox="0 0 12 13" fill="none" xmlns="http://www.w3.org/2000/svg">
<path d="M2.37889 0.611483L0.612343 2.96687V11.2107C0.612343 11.5231 0.736421 11.8226 0.957282 12.0435C1.17814 12.2644 1.47769 12.3884 1.79004 12.3884H10.0339C10.3462 12.3884 10.6458 12.2644 10.8667 12.0435C11.0875 11.8226 11.2116 11.5231 11.2116 11.2107V2.96687L9.44505 0.611483H2.37889Z" stroke="white" stroke-width="1.17092" stroke-linecap="round" stroke-linejoin="round"/>
<path d="M0.611483 2.96689H11.2107" stroke="white" stroke-width="1.17092" stroke-linecap="round" stroke-linejoin="round"/>
<path d="M8.26719 5.3223C8.26719 5.94698 8.01903 6.54609 7.57731 6.98781C7.13559 7.42953 6.53649 7.67769 5.9118 7.67769C5.28711 7.67769 4.68801 7.42953 4.24629 6.98781C3.80457 6.54609 3.55641 5.94698 3.55641 5.3223" stroke="white" stroke-width="1.17092" stroke-linecap="round" stroke-linejoin="round"/>
</svg>
