<svg width="282" height="57" viewBox="0 0 282 57" fill="none" xmlns="http://www.w3.org/2000/svg">
<rect width="55.5229" height="56.3049" rx="12.4898" fill="#F1F2F6"/>
<mask id="path-2-inside-1_216_5920" fill="white">
<path d="M40.8613 41.7212C41.0039 41.5691 41.0472 41.3485 40.972 41.1541L32.3564 18.8042C32.8156 18.0084 32.9025 17.0117 32.5019 16.1097C31.8366 14.6126 30.0773 13.9357 28.58 14.6009C25.0495 16.1697 21.9099 18.3849 19.2485 21.1853C16.587 23.9856 14.5342 27.2337 13.147 30.8394C13.0029 31.2139 12.9401 31.5998 12.9497 31.978C12.9794 33.1441 13.6986 34.2353 14.8533 34.6795C15.6302 34.9784 16.4569 34.9273 17.1596 34.6046L40.3025 41.8677C40.5014 41.9302 40.7186 41.8732 40.8613 41.7212ZM32.5079 22.2176L33.4209 24.5863C33.1291 24.8745 32.7209 25.0218 32.3033 24.9776C31.9355 24.9386 31.6049 24.7588 31.3723 24.4712C31.1398 24.1837 31.0333 23.823 31.0721 23.4549C31.1111 23.0872 31.2908 22.7566 31.5784 22.5241C31.8434 22.3098 32.1706 22.2028 32.5079 22.2176ZM15.2434 33.6656C14.2734 33.2924 13.7878 32.1994 14.1611 31.2296C16.8642 24.2035 22.1416 18.6506 29.0212 15.5938C29.4813 15.3893 29.9934 15.3763 30.4633 15.5571C30.9332 15.7379 31.3046 16.0908 31.509 16.5509C31.7134 17.011 31.7265 17.5232 31.5457 17.993C31.3649 18.4629 31.012 18.8343 30.5519 19.0387C27.6071 20.3471 24.9885 22.1949 22.7685 24.5307C20.5486 26.8665 18.8364 29.5757 17.6793 32.5832C17.3062 33.5532 16.2134 34.0388 15.2434 33.6656ZM31.8331 38.0711C31.833 38.0219 31.8346 37.9726 31.8398 37.9234C31.8787 37.5557 32.0585 37.2251 32.3461 36.9926C32.6336 36.76 32.9946 36.6534 33.3623 36.6923C34.1215 36.7727 34.6737 37.4556 34.5934 38.215C34.5686 38.4493 34.4836 38.6708 34.3506 38.8613L31.8331 38.0711ZM35.4156 39.1954C35.553 38.9271 35.6415 38.634 35.6738 38.3294C35.8177 36.9743 34.8316 35.7554 33.4767 35.612C32.8204 35.5425 32.1762 35.7328 31.663 36.1477C31.1686 36.5475 30.8533 37.1097 30.7688 37.7371L27.5853 36.738L28.5062 35.4726C28.6826 35.23 28.6292 34.8902 28.3866 34.7138C28.144 34.5373 27.8043 34.5908 27.6278 34.8334L26.4916 36.3948L18.2122 33.7965C18.4109 33.5559 18.5753 33.2804 18.6934 32.9735C20.9308 27.1579 25.2989 22.5619 30.993 20.0318C31.1911 19.9438 31.3743 19.8362 31.5424 19.7131L32.0979 21.154C31.6611 21.2159 31.2475 21.3947 30.8955 21.6793C30.3822 22.0943 30.0613 22.6843 29.9919 23.3406C29.9802 23.4506 29.9758 23.56 29.9786 23.6687C29.9923 24.2089 30.1821 24.727 30.5275 25.1543C30.9426 25.6676 31.5325 25.9885 32.1889 26.058C32.7782 26.1203 33.3564 25.9685 33.8304 25.6485L36.4089 32.3374L35.7977 32.6089C35.5908 32.7009 35.4697 32.9063 35.4751 33.1194C35.4769 33.1886 35.4921 33.2586 35.5219 33.3259C35.6437 33.6 35.9648 33.7235 36.2389 33.6017L36.8001 33.3524L39.5531 40.4939L35.4156 39.1954Z"/>
</mask>
<path d="M40.8613 41.7212C41.0039 41.5691 41.0472 41.3485 40.972 41.1541L32.3564 18.8042C32.8156 18.0084 32.9025 17.0117 32.5019 16.1097C31.8366 14.6126 30.0773 13.9357 28.58 14.6009C25.0495 16.1697 21.9099 18.3849 19.2485 21.1853C16.587 23.9856 14.5342 27.2337 13.147 30.8394C13.0029 31.2139 12.9401 31.5998 12.9497 31.978C12.9794 33.1441 13.6986 34.2353 14.8533 34.6795C15.6302 34.9784 16.4569 34.9273 17.1596 34.6046L40.3025 41.8677C40.5014 41.9302 40.7186 41.8732 40.8613 41.7212ZM32.5079 22.2176L33.4209 24.5863C33.1291 24.8745 32.7209 25.0218 32.3033 24.9776C31.9355 24.9386 31.6049 24.7588 31.3723 24.4712C31.1398 24.1837 31.0333 23.823 31.0721 23.4549C31.1111 23.0872 31.2908 22.7566 31.5784 22.5241C31.8434 22.3098 32.1706 22.2028 32.5079 22.2176ZM15.2434 33.6656C14.2734 33.2924 13.7878 32.1994 14.1611 31.2296C16.8642 24.2035 22.1416 18.6506 29.0212 15.5938C29.4813 15.3893 29.9934 15.3763 30.4633 15.5571C30.9332 15.7379 31.3046 16.0908 31.509 16.5509C31.7134 17.011 31.7265 17.5232 31.5457 17.993C31.3649 18.4629 31.012 18.8343 30.5519 19.0387C27.6071 20.3471 24.9885 22.1949 22.7685 24.5307C20.5486 26.8665 18.8364 29.5757 17.6793 32.5832C17.3062 33.5532 16.2134 34.0388 15.2434 33.6656ZM31.8331 38.0711C31.833 38.0219 31.8346 37.9726 31.8398 37.9234C31.8787 37.5557 32.0585 37.2251 32.3461 36.9926C32.6336 36.76 32.9946 36.6534 33.3623 36.6923C34.1215 36.7727 34.6737 37.4556 34.5934 38.215C34.5686 38.4493 34.4836 38.6708 34.3506 38.8613L31.8331 38.0711ZM35.4156 39.1954C35.553 38.9271 35.6415 38.634 35.6738 38.3294C35.8177 36.9743 34.8316 35.7554 33.4767 35.612C32.8204 35.5425 32.1762 35.7328 31.663 36.1477C31.1686 36.5475 30.8533 37.1097 30.7688 37.7371L27.5853 36.738L28.5062 35.4726C28.6826 35.23 28.6292 34.8902 28.3866 34.7138C28.144 34.5373 27.8043 34.5908 27.6278 34.8334L26.4916 36.3948L18.2122 33.7965C18.4109 33.5559 18.5753 33.2804 18.6934 32.9735C20.9308 27.1579 25.2989 22.5619 30.993 20.0318C31.1911 19.9438 31.3743 19.8362 31.5424 19.7131L32.0979 21.154C31.6611 21.2159 31.2475 21.3947 30.8955 21.6793C30.3822 22.0943 30.0613 22.6843 29.9919 23.3406C29.9802 23.4506 29.9758 23.56 29.9786 23.6687C29.9923 24.2089 30.1821 24.727 30.5275 25.1543C30.9426 25.6676 31.5325 25.9885 32.1889 26.058C32.7782 26.1203 33.3564 25.9685 33.8304 25.6485L36.4089 32.3374L35.7977 32.6089C35.5908 32.7009 35.4697 32.9063 35.4751 33.1194C35.4769 33.1886 35.4921 33.2586 35.5219 33.3259C35.6437 33.6 35.9648 33.7235 36.2389 33.6017L36.8001 33.3524L39.5531 40.4939L35.4156 39.1954Z" fill="black"/>
<path d="M40.8613 41.7212L42.5722 43.3264L42.5725 43.326L40.8613 41.7212ZM40.972 41.1541L38.7829 41.998L38.7841 42.0011L40.972 41.1541ZM32.3564 18.8042L30.3244 17.6316L29.7642 18.6023L30.1674 19.6481L32.3564 18.8042ZM32.5019 16.1097L34.6459 15.1574L34.6458 15.1571L32.5019 16.1097ZM28.58 14.6009L27.6274 12.4569L27.6273 12.457L28.58 14.6009ZM13.147 30.8394L10.9574 29.997L10.9573 29.9972L13.147 30.8394ZM12.9497 31.978L10.6044 32.0376L10.6044 32.0377L12.9497 31.978ZM14.8533 34.6795L15.6956 32.4899L15.6956 32.4899L14.8533 34.6795ZM17.1596 34.6046L17.8621 32.3662L17.001 32.096L16.1807 32.4726L17.1596 34.6046ZM40.3025 41.8677L39.6 44.1061L39.6001 44.1062L40.3025 41.8677ZM32.5079 22.2176L34.697 21.3738L34.1448 19.9413L32.6111 19.8738L32.5079 22.2176ZM33.4209 24.5863L35.0695 26.2555L36.1625 25.176L35.61 23.7425L33.4209 24.5863ZM32.3033 24.9776L32.0558 27.3105L32.0564 27.3106L32.3033 24.9776ZM31.0721 23.4549L28.7391 23.2078L28.739 23.2087L31.0721 23.4549ZM31.5784 22.5241L33.0535 24.3484L33.0535 24.3484L31.5784 22.5241ZM15.2434 33.6656L16.086 31.476L16.0858 31.476L15.2434 33.6656ZM14.1611 31.2296L16.3505 32.0723L16.3507 32.0719L14.1611 31.2296ZM29.0212 15.5938L29.9738 17.7377L29.9738 17.7377L29.0212 15.5938ZM30.4633 15.5571L31.3058 13.3675L31.3057 13.3675L30.4633 15.5571ZM30.5519 19.0387L31.5045 21.1827L31.5045 21.1826L30.5519 19.0387ZM17.6793 32.5832L15.4898 31.7408L15.4897 31.7409L17.6793 32.5832ZM31.8331 38.0711L29.487 38.0737L29.489 39.7942L31.1305 40.3094L31.8331 38.0711ZM31.8398 37.9234L29.5068 37.6762L29.5065 37.679L31.8398 37.9234ZM32.3461 36.9926L33.8211 38.817L33.8213 38.8168L32.3461 36.9926ZM33.3623 36.6923L33.6094 34.3594L33.6091 34.3593L33.3623 36.6923ZM34.5934 38.215L36.9264 38.4619L36.9265 38.4615L34.5934 38.215ZM34.3506 38.8613L33.648 41.0996L35.2892 41.6148L36.2741 40.2045L34.3506 38.8613ZM35.4156 39.1954L33.3274 38.1262L32.0602 40.6011L34.7131 41.4337L35.4156 39.1954ZM35.6738 38.3294L33.3409 38.0816L33.3408 38.0825L35.6738 38.3294ZM33.4767 35.612L33.2297 37.945L33.2297 37.945L33.4767 35.612ZM31.663 36.1477L30.188 34.3234L30.1879 34.3235L31.663 36.1477ZM30.7688 37.7371L30.0663 39.9755L32.7219 40.8089L33.0938 38.0505L30.7688 37.7371ZM27.5853 36.738L25.6884 35.3576L23.7666 37.9985L26.8829 38.9764L27.5853 36.738ZM28.5062 35.4726L30.4032 36.853L30.4035 36.8525L28.5062 35.4726ZM28.3866 34.7138L27.0063 36.6108L27.0066 36.611L28.3866 34.7138ZM27.6278 34.8334L25.7309 33.4529L25.7308 33.453L27.6278 34.8334ZM26.4916 36.3948L25.7891 38.6332L27.397 39.1378L28.3885 37.7752L26.4916 36.3948ZM18.2122 33.7965L16.4032 32.3027L14.1833 34.991L17.5097 36.0349L18.2122 33.7965ZM18.6934 32.9735L20.8829 33.816L20.8829 33.8159L18.6934 32.9735ZM30.993 20.0318L30.0408 17.8877L30.0404 17.8879L30.993 20.0318ZM31.5424 19.7131L33.7315 18.8692L32.6292 16.0097L30.1565 17.8202L31.5424 19.7131ZM32.0979 21.154L32.4271 23.4768L35.348 23.0628L34.2869 20.3102L32.0979 21.154ZM30.8955 21.6793L32.3704 23.5038L32.3705 23.5036L30.8955 21.6793ZM29.9919 23.3406L32.3248 23.588L32.3249 23.5874L29.9919 23.3406ZM30.5275 25.1543L28.7031 26.6292L28.7032 26.6294L30.5275 25.1543ZM32.1889 26.058L31.9418 28.391L31.9421 28.391L32.1889 26.058ZM33.8304 25.6485L36.0194 24.8047L34.9598 22.0557L32.5179 23.704L33.8304 25.6485ZM36.4089 32.3374L37.3614 34.4813L39.4004 33.5754L38.5979 31.4936L36.4089 32.3374ZM35.7977 32.6089L34.8452 30.465L34.8447 30.4652L35.7977 32.6089ZM35.5219 33.3259L33.3776 34.2776L33.3779 34.2784L35.5219 33.3259ZM36.2389 33.6017L37.1914 35.7457L37.1914 35.7457L36.2389 33.6017ZM36.8001 33.3524L38.9891 32.5086L38.1019 30.2069L35.8476 31.2084L36.8001 33.3524ZM39.5531 40.4939L38.8505 42.7323L43.4918 44.189L41.7421 39.6501L39.5531 40.4939ZM42.5725 43.326C43.3294 42.519 43.562 41.3461 43.1598 40.3072L38.7841 42.0011C38.5325 41.3509 38.6785 40.6192 39.1501 40.1163L42.5725 43.326ZM43.161 40.3103L34.5454 17.9604L30.1674 19.6481L38.783 41.998L43.161 40.3103ZM34.3883 19.9768C35.2045 18.5627 35.3654 16.7772 34.6459 15.1574L30.3578 17.0621C30.4396 17.2462 30.4268 17.4542 30.3244 17.6316L34.3883 19.9768ZM34.6458 15.1571C33.4544 12.4759 30.3088 11.2656 27.6274 12.4569L29.5325 16.7449C29.8458 16.6057 30.2188 16.7492 30.358 17.0624L34.6458 15.1571ZM27.6273 12.457C23.8154 14.1509 20.4216 16.5454 17.5479 19.5691L20.949 22.8015C23.3982 20.2245 26.2837 18.1885 29.5327 16.7448L27.6273 12.457ZM17.5479 19.5691C14.6743 22.5928 12.4553 26.1038 10.9574 29.997L15.3365 31.6819C16.6132 28.3637 18.4998 25.3785 20.949 22.8015L17.5479 19.5691ZM10.9573 29.9972C10.7006 30.6646 10.5871 31.3574 10.6044 32.0376L15.2949 31.9183C15.293 31.8422 15.3053 31.7632 15.3366 31.6817L10.9573 29.9972ZM10.6044 32.0377C10.6574 34.1165 11.9375 36.0715 14.011 36.8691L15.6956 32.4899C15.4596 32.3991 15.3014 32.1718 15.2949 31.9182L10.6044 32.0377ZM14.011 36.8691C15.4049 37.4054 16.8881 37.3108 18.1385 36.7367L16.1807 32.4726C16.0257 32.5438 15.8555 32.5514 15.6956 32.4899L14.011 36.8691ZM16.4571 36.843L39.6 44.1061L41.005 39.6294L17.8621 32.3662L16.4571 36.843ZM39.6001 44.1062C40.6578 44.4381 41.813 44.1356 42.5722 43.3264L39.1504 40.116C39.6243 39.6109 40.345 39.4223 41.0049 39.6293L39.6001 44.1062ZM30.3189 23.0614L31.2319 25.4301L35.61 23.7425L34.697 21.3738L30.3189 23.0614ZM31.7724 22.9171C31.9749 22.7171 32.2601 22.6139 32.5502 22.6446L32.0564 27.3106C33.1818 27.4297 34.2833 27.032 35.0695 26.2555L31.7724 22.9171ZM32.5507 22.6446C32.8012 22.6712 33.0378 22.7998 33.1965 22.996L29.5481 25.9464C30.1719 26.7178 31.0698 27.206 32.0558 27.3105L32.5507 22.6446ZM33.1965 22.996C33.3556 23.1928 33.4316 23.4514 33.4052 23.7011L28.739 23.2087C28.635 24.1945 28.9239 25.1745 29.5481 25.9464L33.1965 22.996ZM33.4051 23.7021C33.3785 23.9528 33.2498 24.1896 33.0535 24.3484L30.1034 20.6997C29.3318 21.3236 28.8436 22.2216 28.7391 23.2078L33.4051 23.7021ZM33.0535 24.3484C32.8732 24.4942 32.6391 24.5717 32.4048 24.5614L32.6111 19.8738C31.7022 19.8339 30.8137 20.1255 30.1034 20.6998L33.0535 24.3484ZM16.0858 31.476C16.325 31.568 16.4428 31.8326 16.3505 32.0723L11.9716 30.3868C11.1328 32.5662 12.2218 35.0168 14.4011 35.8552L16.0858 31.476ZM16.3507 32.0719C18.8303 25.6266 23.6628 20.5419 29.9738 17.7377L28.0686 13.4499C20.6204 16.7593 14.898 22.7804 11.9715 30.3872L16.3507 32.0719ZM29.9738 17.7377C29.8653 17.7859 29.7317 17.7893 29.621 17.7467L31.3057 13.3675C30.2551 12.9633 29.0973 12.9927 28.0686 13.4499L29.9738 17.7377ZM29.6209 17.7467C29.5101 17.704 29.4133 17.612 29.3651 17.5035L33.6529 15.5983C33.1959 14.5696 32.3563 13.7717 31.3058 13.3675L29.6209 17.7467ZM29.3651 17.5035C29.3169 17.395 29.3135 17.2615 29.3561 17.1506L33.7353 18.8355C34.1395 17.7848 34.11 16.627 33.6529 15.5983L29.3651 17.5035ZM29.3561 17.1506C29.3988 17.0398 29.4908 16.943 29.5993 16.8948L31.5045 21.1826C32.5332 20.7255 33.3311 19.886 33.7353 18.8355L29.3561 17.1506ZM29.5993 16.8948C26.373 18.3283 23.5001 20.3554 21.068 22.9145L24.4691 26.1469C26.4768 24.0344 28.8413 22.3659 31.5045 21.1827L29.5993 16.8948ZM21.068 22.9145C18.6358 25.4736 16.7574 28.4458 15.4898 31.7408L19.8689 33.4255C20.9154 30.7056 22.4614 28.2593 24.4691 26.1469L21.068 22.9145ZM15.4897 31.7409C15.5817 31.5016 15.8465 31.3839 16.086 31.476L14.4009 35.8551C16.5803 36.6937 19.0307 35.6048 19.869 33.4254L15.4897 31.7409ZM34.1791 38.0684C34.1791 38.0693 34.1791 38.0792 34.1784 38.0954C34.1778 38.1118 34.1763 38.1366 34.173 38.1678L29.5065 37.679C29.4898 37.8379 29.4869 37.9754 29.487 38.0737L34.1791 38.0684ZM34.1727 38.1705C34.1462 38.4214 34.0174 38.6582 33.8211 38.817L30.8711 35.1682C30.0996 35.7919 29.6113 36.6899 29.5068 37.6762L34.1727 38.1705ZM33.8213 38.8168C33.6249 38.9756 33.3664 39.0519 33.1155 39.0254L33.6091 34.3593C32.6228 34.255 31.6424 34.5445 30.8709 35.1684L33.8213 38.8168ZM33.1153 39.0253C32.5858 38.9693 32.2045 38.497 32.2604 37.9685L36.9265 38.4615C37.1428 36.4141 35.6572 34.5762 33.6094 34.3594L33.1153 39.0253ZM32.2604 37.9681C32.2786 37.7966 32.34 37.6428 32.4272 37.5181L36.2741 40.2045C36.6272 39.6988 36.8587 39.102 36.9264 38.4619L32.2604 37.9681ZM35.0532 36.6229L32.5357 35.8327L31.1305 40.3094L33.648 41.0996L35.0532 36.6229ZM37.5039 40.2646C37.7708 39.7433 37.9438 39.1719 38.0068 38.5763L33.3408 38.0825C33.3393 38.0962 33.3352 38.111 33.3274 38.1262L37.5039 40.2646ZM38.0067 38.5771C38.2876 35.9322 36.3662 33.5587 33.7236 33.279L33.2297 37.945C33.2618 37.9484 33.2892 37.9619 33.3131 37.9915C33.337 38.021 33.3442 38.0501 33.3409 38.0816L38.0067 38.5771ZM33.7237 33.279C32.4486 33.144 31.185 33.5172 30.188 34.3234L33.138 37.9721C33.1565 37.9571 33.1708 37.9511 33.1808 37.9481C33.1908 37.9452 33.206 37.9425 33.2297 37.945L33.7237 33.279ZM30.1879 34.3235C29.227 35.1004 28.6082 36.2036 28.4438 37.4237L33.0938 38.0505C33.0967 38.0289 33.1023 38.0154 33.1073 38.0067C33.1121 37.998 33.1207 37.9861 33.1381 37.972L30.1879 34.3235ZM31.4712 35.4987L28.2878 34.4996L26.8829 38.9764L30.0663 39.9755L31.4712 35.4987ZM29.4823 38.1185L30.4032 36.853L26.6093 34.0922L25.6884 35.3576L29.4823 38.1185ZM30.4035 36.8525C31.3411 35.5634 31.0582 33.756 29.7666 32.8165L27.0066 36.611C26.2002 36.0244 26.0242 34.8967 26.609 34.0926L30.4035 36.8525ZM29.7669 32.8167C28.4766 31.8779 26.6697 32.1629 25.7309 33.4529L29.5247 36.2139C28.9389 37.0188 27.8115 37.1966 27.0063 36.6108L29.7669 32.8167ZM25.7308 33.453L24.5946 35.0145L28.3885 37.7752L29.5248 36.2137L25.7308 33.453ZM27.194 34.1565L18.9146 31.5581L17.5097 36.0349L25.7891 38.6332L27.194 34.1565ZM20.0212 35.2903C20.3759 34.8607 20.6711 34.3664 20.8829 33.816L16.5038 32.131C16.4794 32.1943 16.4459 32.251 16.4032 32.3027L20.0212 35.2903ZM20.8829 33.8159C22.897 28.581 26.8201 24.4531 31.9456 22.1757L30.0404 17.8879C23.7776 20.6706 18.9646 25.7348 16.5038 32.1311L20.8829 33.8159ZM31.9453 22.1759C32.3026 22.0172 32.6306 21.824 32.9284 21.6059L30.1565 17.8202C30.118 17.8484 30.0796 17.8705 30.0408 17.8877L31.9453 22.1759ZM29.3534 20.5569L29.9089 21.9978L34.2869 20.3102L33.7315 18.8692L29.3534 20.5569ZM31.7687 18.8312C30.9102 18.9529 30.1009 19.3048 29.4204 19.855L32.3705 23.5036C32.3835 23.4932 32.3941 23.4874 32.402 23.4839C32.4099 23.4805 32.418 23.4781 32.4271 23.4768L31.7687 18.8312ZM29.4206 19.8549C28.4233 20.6611 27.7938 21.8187 27.6589 23.0938L32.3249 23.5874C32.3274 23.5639 32.3332 23.5495 32.3382 23.5404C32.3431 23.5313 32.352 23.5186 32.3704 23.5038L29.4206 19.8549ZM27.6589 23.0933C27.6365 23.3044 27.6279 23.5164 27.6333 23.7284L32.3239 23.6091C32.3237 23.6037 32.3239 23.5968 32.3248 23.588L27.6589 23.0933ZM27.6333 23.7284C27.6602 24.7867 28.0342 25.8018 28.7031 26.6292L32.3519 23.6794C32.3393 23.6637 32.3332 23.6512 32.3299 23.6423C32.3266 23.6334 32.3242 23.6229 32.3239 23.6091L27.6333 23.7284ZM28.7032 26.6294C29.5095 27.6266 30.6668 28.2559 31.9418 28.391L32.4361 23.725C32.4122 23.7225 32.3978 23.7166 32.3887 23.7117C32.3795 23.7067 32.3668 23.6978 32.3518 23.6792L28.7032 26.6294ZM31.9421 28.391C33.0923 28.5127 34.2209 28.2154 35.143 27.593L32.5179 23.704C32.4919 23.7215 32.464 23.728 32.4357 23.725L31.9421 28.391ZM31.6414 26.4923L34.2198 33.1812L38.5979 31.4936L36.0194 24.8047L31.6414 26.4923ZM35.4563 30.1934L34.8452 30.465L36.7503 34.7529L37.3614 34.4813L35.4563 30.1934ZM34.8447 30.4652C33.7414 30.9556 33.1012 32.0502 33.1299 33.179L37.8204 33.0597C37.8383 33.7624 37.4402 34.4462 36.7508 34.7527L34.8447 30.4652ZM33.1299 33.179C33.1393 33.5516 33.2211 33.9252 33.3776 34.2776L37.6662 32.3742C37.763 32.5921 37.8145 32.8256 37.8204 33.0597L33.1299 33.179ZM33.3779 34.2784C34.0259 35.737 35.7335 36.3934 37.1914 35.7457L35.2864 31.4578C36.196 31.0536 37.2615 31.4631 37.6659 32.3734L33.3779 34.2784ZM37.1914 35.7457L37.7526 35.4964L35.8476 31.2084L35.2864 31.4578L37.1914 35.7457ZM34.6111 34.1962L37.364 41.3378L41.7421 39.6501L38.9891 32.5086L34.6111 34.1962ZM40.2556 38.2556L36.1182 36.957L34.7131 41.4337L38.8505 42.7323L40.2556 38.2556Z" fill="#0A191E" mask="url(#path-2-inside-1_216_5920)"/>
<path d="M26.0392 19.5464C26.0408 19.5487 26.0424 19.5511 26.0441 19.5534C26.0441 19.5534 26.0441 19.5535 26.0441 19.5535C26.1054 19.6437 26.136 19.746 26.138 19.8477C26.1414 20.0217 26.0612 20.1941 25.9081 20.3019L25.9051 20.304L25.899 20.3083L25.8964 20.3101C25.6509 20.4769 25.3175 20.4153 25.1474 20.1734L25.5869 19.8643L25.5907 19.8617L25.5914 19.8612L25.5915 19.8611L25.5928 19.8602L25.5945 19.859L25.5957 19.8582L25.5981 19.8564L25.5986 19.8561L25.5986 19.8561L26.0392 19.5464ZM26.0392 19.5464C25.8683 19.3034 25.5339 19.2436 25.2892 19.4101C25.2882 19.4108 25.2873 19.4114 25.2863 19.4121C25.2855 19.4127 25.2847 19.4132 25.2839 19.4138C25.2836 19.414 25.2834 19.4141 25.2832 19.4143C25.2773 19.4184 25.2714 19.4225 25.2657 19.4268C25.1205 19.5356 25.0444 19.7048 25.0487 19.8755C25.0513 19.9759 25.0817 20.0769 25.1424 20.1661C25.144 20.1685 25.1457 20.1709 25.1474 20.1733L25.5869 19.8643L25.5907 19.8617L25.5914 19.8612L25.5915 19.8611L25.5928 19.8602L25.5945 19.859L25.5957 19.8581L25.5968 19.8574L25.5973 19.857L25.5973 19.857L26.0392 19.5464Z" fill="black" stroke="#0A191E" stroke-width="2.34185"/>
<mask id="path-5-inside-2_216_5920" fill="white">
<path d="M27.224 19.4504C28.1383 18.8976 29.0972 18.3972 30.074 17.9632C30.3482 17.8414 30.4715 17.5202 30.3498 17.2462C30.228 16.9721 29.907 16.8486 29.6328 16.9705C28.6146 17.4229 27.615 17.9445 26.6619 18.5207C26.4889 18.6254 26.395 18.8112 26.3998 18.9998C26.4022 19.0911 26.4275 19.183 26.4781 19.2666C26.6333 19.5233 26.9673 19.6056 27.224 19.4504Z"/>
</mask>
<path d="M27.224 19.4504C28.1383 18.8976 29.0972 18.3972 30.074 17.9632C30.3482 17.8414 30.4715 17.5202 30.3498 17.2462C30.228 16.9721 29.907 16.8486 29.6328 16.9705C28.6146 17.4229 27.615 17.9445 26.6619 18.5207C26.4889 18.6254 26.395 18.8112 26.3998 18.9998C26.4022 19.0911 26.4275 19.183 26.4781 19.2666C26.6333 19.5233 26.9673 19.6056 27.224 19.4504Z" fill="black"/>
<path d="M27.224 19.4504L26.0102 17.4427L26.0099 17.4429L27.224 19.4504ZM30.074 17.9632L29.1218 15.8191L29.1213 15.8193L30.074 17.9632ZM30.3498 17.2462L28.2057 18.1986L28.206 18.1992L30.3498 17.2462ZM29.6328 16.9705L30.5855 19.1144L30.5857 19.1143L29.6328 16.9705ZM26.6619 18.5207L25.4482 16.5131L25.448 16.5132L26.6619 18.5207ZM26.4781 19.2666L24.4705 20.4804L24.4706 20.4806L26.4781 19.2666ZM28.4377 21.458C29.2679 20.9561 30.1397 20.5012 31.0267 20.107L29.1213 15.8193C28.0548 16.2932 27.0087 16.8391 26.0102 17.4427L28.4377 21.458ZM31.0262 20.1073C32.4859 19.459 33.1413 17.7505 32.4935 16.2933L28.206 18.1992C27.8018 17.2899 28.2106 16.2237 29.1218 15.8191L31.0262 20.1073ZM32.4938 16.2939C31.8458 14.835 30.138 14.1786 28.68 14.8266L30.5857 19.1143C29.676 19.5186 28.6101 19.1091 28.2057 18.1986L32.4938 16.2939ZM28.6802 14.8265C27.5722 15.3189 26.4854 15.886 25.4482 16.5131L27.8757 20.5284C28.7447 20.003 29.6571 19.5269 30.5855 19.1144L28.6802 14.8265ZM25.448 16.5132C24.5256 17.071 24.0292 18.0624 24.0546 19.0595L28.7451 18.9402C28.7609 19.56 28.4522 20.1798 27.8759 20.5282L25.448 16.5132ZM24.0546 19.0595C24.067 19.5474 24.2034 20.0388 24.4705 20.4804L28.4857 18.0527C28.6516 18.3272 28.7373 18.6348 28.7451 18.9402L24.0546 19.0595ZM24.4706 20.4806C25.2959 21.8452 27.0718 22.2841 28.438 21.4578L26.0099 17.4429C26.8627 16.9272 27.9707 17.2013 28.4855 18.0525L24.4706 20.4806Z" fill="#0A191E" mask="url(#path-5-inside-2_216_5920)"/>
<mask id="path-7-inside-3_216_5920" fill="white">
<path d="M33.7971 31.2453C33.8086 31.1373 33.813 31.0278 33.8103 30.9199C33.7789 29.6863 32.8287 28.6579 31.6001 28.5279C30.2452 28.3845 29.0262 29.37 28.8828 30.7249C28.8713 30.8329 28.8669 30.9424 28.8696 31.0503C28.901 32.2839 29.8512 33.3122 31.0799 33.4423C32.4347 33.5857 33.6537 32.6001 33.7971 31.2453ZM31.1942 32.362C30.5057 32.2891 29.9733 31.7133 29.9557 31.0227C29.9542 30.962 29.9566 30.9003 29.9631 30.8393C30.0435 30.0801 30.7266 29.5279 31.4858 29.6083C32.1742 29.6812 32.7066 30.2569 32.7242 30.9475C32.7257 31.0082 32.7233 31.0699 32.7168 31.1309C32.6363 31.8901 31.9533 32.4423 31.1942 32.362Z"/>
</mask>
<path d="M33.7971 31.2453C33.8086 31.1373 33.813 31.0278 33.8103 30.9199C33.7789 29.6863 32.8287 28.6579 31.6001 28.5279C30.2452 28.3845 29.0262 29.37 28.8828 30.7249C28.8713 30.8329 28.8669 30.9424 28.8696 31.0503C28.901 32.2839 29.8512 33.3122 31.0799 33.4423C32.4347 33.5857 33.6537 32.6001 33.7971 31.2453ZM31.1942 32.362C30.5057 32.2891 29.9733 31.7133 29.9557 31.0227C29.9542 30.962 29.9566 30.9003 29.9631 30.8393C30.0435 30.0801 30.7266 29.5279 31.4858 29.6083C32.1742 29.6812 32.7066 30.2569 32.7242 30.9475C32.7257 31.0082 32.7233 31.0699 32.7168 31.1309C32.6363 31.8901 31.9533 32.4423 31.1942 32.362Z" fill="black"/>
<path d="M33.7971 31.2453L31.4643 30.9971L31.4641 30.9983L33.7971 31.2453ZM31.6001 28.5279L31.3531 30.8609L31.3532 30.8609L31.6001 28.5279ZM28.8828 30.7249L31.2156 30.9731L31.2158 30.9719L28.8828 30.7249ZM31.0799 33.4423L30.8329 35.7753L30.833 35.7753L31.0799 33.4423ZM31.1942 32.362L30.9472 34.695L30.9473 34.695L31.1942 32.362ZM29.9631 30.8393L32.296 31.0877L32.2961 31.0864L29.9631 30.8393ZM31.4858 29.6083L31.7328 27.2753L31.7327 27.2753L31.4858 29.6083ZM32.7168 31.1309L30.3839 30.8825L30.3838 30.8837L32.7168 31.1309ZM36.13 31.4935C36.1524 31.2832 36.1609 31.0709 36.1555 30.8602L31.465 30.9795C31.4651 30.9848 31.4649 30.9914 31.4643 30.9971L36.13 31.4935ZM36.1555 30.8602C36.0942 28.4475 34.2443 26.4486 31.847 26.1949L31.3532 30.8609C31.379 30.8636 31.406 30.8751 31.4311 30.9022C31.4561 30.9292 31.4644 30.956 31.465 30.9795L36.1555 30.8602ZM31.8471 26.1949C29.2039 25.9151 26.8296 27.8344 26.5498 30.4779L31.2158 30.9719C31.2191 30.9401 31.2325 30.9129 31.2621 30.8889C31.2918 30.8649 31.3213 30.8575 31.3531 30.8609L31.8471 26.1949ZM26.5499 30.4767C26.5275 30.687 26.519 30.8993 26.5243 31.11L31.2149 30.9907C31.2148 30.9854 31.215 30.9788 31.2156 30.9731L26.5499 30.4767ZM26.5243 31.11C26.5857 33.5227 28.4357 35.5215 30.8329 35.7753L31.3268 31.1093C31.301 31.1065 31.2738 31.095 31.2488 31.068C31.2238 31.0409 31.2155 31.0142 31.2149 30.9907L26.5243 31.11ZM30.833 35.7753C33.4762 36.055 35.8503 34.1357 36.1301 31.4923L31.4641 30.9983C31.4608 31.0301 31.4474 31.0573 31.4178 31.0813C31.3881 31.1052 31.3586 31.1126 31.3268 31.1093L30.833 35.7753ZM31.4413 30.029C31.9195 30.0796 32.2885 30.4728 32.301 30.9631L27.6104 31.0824C27.658 32.9539 29.0919 34.4985 30.9472 34.695L31.4413 30.029ZM32.301 30.9631C32.3021 31.0047 32.3004 31.0458 32.296 31.0877L27.6303 30.5909C27.6128 30.7547 27.6063 30.9194 27.6104 31.0824L32.301 30.9631ZM32.2961 31.0864C32.24 31.6158 31.7678 31.9972 31.2389 31.9413L31.7327 27.2753C29.6853 27.0586 27.847 28.5443 27.6301 30.5923L32.2961 31.0864ZM31.2387 31.9413C30.7604 31.8906 30.3914 31.4974 30.3789 31.0071L35.0695 30.8878C35.0219 29.0164 33.5881 27.4717 31.7328 27.2753L31.2387 31.9413ZM30.3789 31.0071C30.3778 30.9655 30.3795 30.9244 30.3839 30.8825L35.0496 31.3793C35.0671 31.2155 35.0736 31.0509 35.0695 30.8878L30.3789 31.0071ZM30.3838 30.8837C30.4399 30.3548 30.9116 29.9729 31.4411 30.029L30.9473 34.695C32.9951 34.9117 34.8328 33.4254 35.0498 31.3781L30.3838 30.8837Z" fill="#0A191E" mask="url(#path-7-inside-3_216_5920)"/>
<mask id="path-9-inside-4_216_5920" fill="white">
<path d="M27.0392 31.2761C27.0507 31.1681 27.0551 31.0586 27.0523 30.9507C27.021 29.7171 26.0708 28.6888 24.8422 28.5587C24.1858 28.4892 23.5417 28.6795 23.0284 29.0944C22.5152 29.5094 22.1943 30.0994 22.1247 30.7557C22.1133 30.8637 22.109 30.9731 22.1117 31.081C22.1431 32.3146 23.0932 33.343 24.3219 33.4731C25.6767 33.6166 26.8957 32.631 27.0392 31.2761ZM24.4362 32.3928C23.7477 32.3199 23.2153 31.7441 23.1977 31.0535C23.1962 30.9928 23.1987 30.9311 23.2051 30.8702C23.2441 30.5024 23.424 30.1718 23.7115 29.9393C23.9991 29.7068 24.36 29.6001 24.7278 29.6391C25.4163 29.712 25.9487 30.2877 25.9663 30.9783C25.9678 31.039 25.9653 31.1008 25.9589 31.1617C25.8785 31.9208 25.1954 32.4731 24.4362 32.3928Z"/>
</mask>
<path d="M27.0392 31.2761C27.0507 31.1681 27.0551 31.0586 27.0523 30.9507C27.021 29.7171 26.0708 28.6888 24.8422 28.5587C24.1858 28.4892 23.5417 28.6795 23.0284 29.0944C22.5152 29.5094 22.1943 30.0994 22.1247 30.7557C22.1133 30.8637 22.109 30.9731 22.1117 31.081C22.1431 32.3146 23.0932 33.343 24.3219 33.4731C25.6767 33.6166 26.8957 32.631 27.0392 31.2761ZM24.4362 32.3928C23.7477 32.3199 23.2153 31.7441 23.1977 31.0535C23.1962 30.9928 23.1987 30.9311 23.2051 30.8702C23.2441 30.5024 23.424 30.1718 23.7115 29.9393C23.9991 29.7068 24.36 29.6001 24.7278 29.6391C25.4163 29.712 25.9487 30.2877 25.9663 30.9783C25.9678 31.039 25.9653 31.1008 25.9589 31.1617C25.8785 31.9208 25.1954 32.4731 24.4362 32.3928Z" fill="black"/>
<path d="M27.0392 31.2761L24.7063 31.0281L24.7062 31.0289L27.0392 31.2761ZM24.8422 28.5587L24.595 30.8917L24.5953 30.8918L24.8422 28.5587ZM23.0284 29.0944L24.5033 30.9189L24.5034 30.9188L23.0284 29.0944ZM22.1247 30.7557L24.4577 31.003L24.4577 31.0029L22.1247 30.7557ZM24.3219 33.4731L24.5691 31.1401L24.5689 31.1401L24.3219 33.4731ZM24.4362 32.3928L24.1892 34.7258L24.1895 34.7258L24.4362 32.3928ZM23.2051 30.8702L20.8722 30.6228L20.8721 30.6236L23.2051 30.8702ZM24.7278 29.6391L24.9749 27.3061L24.9749 27.3061L24.7278 29.6391ZM25.9589 31.1617L23.626 30.9133L23.6259 30.9146L25.9589 31.1617ZM29.3721 31.5242C29.3945 31.314 29.403 31.1018 29.3976 30.891L24.7071 31.0103C24.7072 31.0155 24.707 31.0222 24.7063 31.0281L29.3721 31.5242ZM29.3976 30.891C29.3363 28.4783 27.4864 26.4794 25.089 26.2257L24.5953 30.8918C24.621 30.8945 24.6481 30.9059 24.6732 30.933C24.6981 30.9601 24.7065 30.9868 24.7071 31.0103L29.3976 30.891ZM25.0893 26.2258C23.814 26.0907 22.5506 26.464 21.5535 27.2701L24.5034 30.9188C24.522 30.9038 24.5363 30.8978 24.5462 30.8948C24.5562 30.8919 24.5714 30.8892 24.595 30.8917L25.0893 26.2258ZM21.5535 27.27C20.5563 28.0762 19.9268 29.2337 19.7917 30.5086L24.4577 31.0029C24.4602 30.9792 24.4661 30.9647 24.4711 30.9556C24.476 30.9464 24.4849 30.9338 24.5033 30.9189L21.5535 27.27ZM19.7918 30.5085C19.7695 30.7189 19.7611 30.9308 19.7664 31.1407L24.457 31.0214C24.4568 31.0154 24.4571 31.0085 24.4577 31.003L19.7918 30.5085ZM19.7664 31.1407C19.8278 33.5534 21.6777 35.5523 24.075 35.8061L24.5689 31.1401C24.5431 31.1373 24.516 31.1258 24.4909 31.0987C24.4659 31.0717 24.4576 31.0449 24.457 31.0214L19.7664 31.1407ZM24.0748 35.806C26.7184 36.086 29.0922 34.1663 29.3722 31.5233L24.7062 31.0289C24.7029 31.0608 24.6894 31.0882 24.6598 31.1121C24.6301 31.1361 24.6007 31.1434 24.5691 31.1401L24.0748 35.806ZM24.6833 30.0598C25.1616 30.1105 25.5306 30.5037 25.543 30.9939L20.8525 31.1132C20.9001 32.9846 22.3338 34.5293 24.1892 34.7258L24.6833 30.0598ZM25.543 30.9939C25.5441 31.0369 25.5423 31.0775 25.5382 31.1168L20.8721 30.6236C20.8551 30.7847 20.8483 30.9488 20.8525 31.1132L25.543 30.9939ZM25.5381 31.1176C25.5115 31.3682 25.3829 31.6049 25.1867 31.7635L22.2363 28.1151C21.465 28.7388 20.9768 29.6366 20.8722 30.6228L25.5381 31.1176ZM25.1867 31.7635C24.9903 31.9223 24.7317 31.9987 24.4808 31.9721L24.9749 27.3061C23.9883 27.2016 23.0079 27.4912 22.2363 28.1151L25.1867 31.7635ZM24.4808 31.9721C24.0025 31.9214 23.6334 31.5283 23.621 31.038L28.3115 30.9187C28.2639 29.0472 26.8301 27.5026 24.9749 27.3061L24.4808 31.9721ZM23.621 31.038C23.6199 30.9963 23.6216 30.9552 23.626 30.9133L28.2917 31.4101C28.3091 31.2463 28.3157 31.0817 28.3115 30.9187L23.621 31.038ZM23.6259 30.9146C23.6819 30.3853 24.1539 30.0038 24.683 30.0598L24.1895 34.7258C26.2369 34.9424 28.075 33.4564 28.2918 31.4088L23.6259 30.9146Z" fill="#0A191E" mask="url(#path-9-inside-4_216_5920)"/>
<path d="M29.3411 26.2798L29.3747 25.9626C29.3747 25.9626 29.3747 25.9626 29.3747 25.9626L29.3331 25.9582L29.333 25.9582L28.8346 25.9054L28.8345 25.9054M29.3411 26.2798L29.3153 25.9563L28.8346 25.9054L28.8345 25.9054M29.3411 26.2798C29.2127 26.4532 28.9985 26.5561 28.7683 26.5317C28.7682 26.5317 28.7682 26.5317 28.7682 26.5317C28.7682 26.5317 28.7682 26.5317 28.7682 26.5317C28.7681 26.5317 28.7681 26.5317 28.7681 26.5317C28.5386 26.5074 28.3502 26.3622 28.2608 26.1654L29.3411 26.2798ZM28.8345 25.9054L28.2944 25.8482L28.8345 25.9054Z" fill="black" stroke="#0A191E" stroke-width="2.34185"/>
<path d="M25.599 25.9932C25.6527 26.0692 25.6904 26.1583 25.7061 26.2562L25.599 25.9932ZM25.599 25.9932C25.5713 26.082 25.5629 26.1784 25.578 26.2767C25.5781 26.2773 25.5782 26.2779 25.5783 26.2785C25.5783 26.2786 25.5783 26.2786 25.5783 26.2786C25.5783 26.2788 25.5783 26.2789 25.5784 26.279C25.5818 26.3008 25.5863 26.322 25.5918 26.3428C25.6114 26.4164 25.6435 26.484 25.6856 26.5435C25.7057 26.4789 25.7156 26.4102 25.7138 26.3397C25.7132 26.3138 25.7109 26.2867 25.7065 26.2588C25.7065 26.2587 25.7065 26.2585 25.7065 26.2584C25.7065 26.2584 25.7065 26.2583 25.7065 26.2583L25.599 25.9932ZM25.1688 26.8928L25.1527 26.7902L25.1688 26.8928ZM24.9997 25.8199C24.9997 25.8199 24.9997 25.8199 24.9997 25.8199C24.7273 25.8628 24.5344 26.1012 24.5412 26.3696C24.5418 26.3932 24.5439 26.417 24.5478 26.441C24.5945 26.7373 24.8724 26.9396 25.1687 26.893C25.1688 26.893 25.1688 26.8929 25.1689 26.8929L24.9997 25.8199Z" fill="black" stroke="#0A191E" stroke-width="2.34185"/>
<rect x="75.4924" y="0.000244578" width="55.5229" height="56.3049" rx="12.4898" fill="#31B9CC"/>
<rect x="150.985" y="0.000244578" width="55.5229" height="56.3049" rx="12.4898" fill="#F1F2F6"/>
<rect x="226.477" y="0.000244578" width="55.5229" height="56.3049" rx="12.4898" fill="#F1F2F6"/>
<path d="M185.338 19.7356L185.341 19.6606C185.363 19.2163 185.214 18.8018 184.921 18.4943C184.53 18.0838 183.921 17.9058 183.285 18.0203L176.444 19.2523C176.105 18.8369 175.623 18.5937 175.103 18.5937C174.668 18.5937 174.237 18.7655 173.888 19.077L168.317 24.0527C167.898 24.4264 167.665 24.9443 167.678 25.4746C167.681 25.6139 167.704 25.7511 167.74 25.8851C167.366 26.1514 167.093 26.5867 167.004 27.1215L165.958 33.4797L165.882 33.4775L165.933 33.6288L165.816 34.3393C165.721 34.915 165.86 35.4714 166.195 35.8664C166.391 36.0972 166.643 36.2516 166.924 36.3372C168.115 39.217 170.587 44.1142 173.636 44.1142C174.086 44.1142 174.53 44.0085 174.958 43.8004C176.746 42.9297 176.587 38.8029 176.275 36.1104L176.286 36.11C177.234 36.0776 178.155 35.2486 178.383 34.2221L178.456 33.895C178.84 33.8271 179.198 33.6749 179.491 33.4455L181.48 31.886C181.749 31.6748 181.951 31.4019 182.095 31.1023L182.889 31.0047C183.786 30.8946 184.539 30.2578 184.786 29.4745C186.263 29.8925 188.355 30.3891 189.968 30.3891C189.969 30.3891 189.969 30.3891 189.969 30.3891C191.258 30.3891 192.09 30.0749 192.512 29.4288C192.988 28.7005 193.113 27.88 192.884 26.9897C192.145 24.118 187.616 21.098 185.338 19.7356ZM191.398 28.7014C191.344 28.7853 191.078 29.0591 189.969 29.0591C189.969 29.0591 189.969 29.0591 189.969 29.0591C188.435 29.0591 186.329 28.5354 184.92 28.1276L185.263 21.2476C187.709 22.7764 191.066 25.2634 191.596 27.323C191.729 27.8427 191.665 28.2936 191.398 28.7014ZM183.546 28.9553C183.544 29.0001 183.532 29.0462 183.515 29.0933C183.421 29.3591 183.111 29.6378 182.727 29.6844L182.312 29.7355C182.272 29.4701 182.185 29.2109 182.049 28.9722L177.179 20.4727L183.072 19.4111L183.522 19.3304C183.571 19.3215 183.62 19.317 183.666 19.317C183.793 19.317 183.899 19.3517 183.957 19.412C183.972 19.428 184.017 19.4764 184.012 19.5949L184.004 19.7356L183.573 28.4121L183.546 28.9553ZM180.658 30.8396L180.052 31.3154L178.813 32.2868L178.67 32.3991C178.513 32.5216 178.291 32.5842 178.063 32.5935C177.83 32.6028 177.593 32.5526 177.414 32.4435C177.385 32.4257 177.355 32.4097 177.329 32.3889L172.63 28.5865L170.795 27.1016L169.223 25.8292C169.169 25.7857 169.128 25.7369 169.094 25.6863C169.043 25.61 169.012 25.5275 169.01 25.4427C169.007 25.302 169.075 25.1613 169.204 25.0464L174.774 20.0701C174.841 20.0102 174.911 19.9751 174.981 19.9525C175.022 19.9392 175.063 19.925 175.104 19.925C175.25 19.925 175.383 20.0173 175.479 20.1838L175.55 20.3076L175.938 20.9848L180.894 29.6334C180.94 29.7141 180.968 29.8043 180.986 29.8979C181.027 30.1269 180.987 30.3781 180.873 30.5822C180.817 30.6821 180.746 30.7708 180.658 30.8396ZM177.083 33.9351C176.979 34.4064 176.552 34.7703 176.241 34.7809L176.096 34.7858L175.423 34.8089L171.174 34.9544L167.849 35.068L167.405 35.0831L167.393 35.7L167.392 35.7453V35.6978V35.0831C167.313 35.0831 167.255 35.0583 167.21 35.0055C167.129 34.9105 167.1 34.7423 167.13 34.5559L167.192 34.1796L167.302 33.5166L168.319 27.3377C168.348 27.1611 168.421 27.0248 168.51 26.9649L176.491 33.4238C176.677 33.5738 176.891 33.6883 177.119 33.7739L177.083 33.9351ZM174.375 42.6044C174.127 42.7252 173.885 42.7837 173.636 42.7837C171.794 42.7837 169.742 39.4611 168.39 36.3807L174.933 36.1575C175.283 39.217 175.171 42.217 174.375 42.6044Z" fill="#010002"/>
<path d="M114.978 24.7151C114.607 22.8802 112.982 21.4944 111.039 21.4944C110.454 21.4944 109.882 21.6224 109.36 21.8627L109.173 21.2616C108.835 20.1744 108.04 19.2944 106.993 18.8473C105.946 18.4002 104.761 18.4348 103.742 18.9422C103 19.3114 102.115 19.2493 101.433 18.7803L101.27 18.6681C100.507 18.1443 99.581 17.9099 98.6614 18.0082C97.7417 18.1064 96.8859 18.5311 96.2515 19.2042L94.3446 21.2271L91.7203 20.2487V24.7151H89.9315V27.6441C89.9315 32.2234 92.2132 36.4707 96.035 39.0058L96.2356 39.1388H110.878L111.079 39.0058C114.901 36.4707 117.182 32.2235 117.182 27.6441V24.7151H114.978ZM113.325 24.7151H110.717C110.611 24.1912 110.403 23.7039 110.114 23.275C110.405 23.1548 110.719 23.0911 111.039 23.0911C112.095 23.0912 112.995 23.7706 113.325 24.7151ZM109.064 24.7151H104.491C104.822 23.7706 105.722 23.0911 106.778 23.0911C107.834 23.0912 108.733 23.7706 109.064 24.7151ZM97.4134 20.2993C98.1904 19.4752 99.4317 19.3424 100.365 19.984L100.528 20.0962C101.689 20.8936 103.193 20.9992 104.453 20.3716C105.053 20.073 105.75 20.0526 106.366 20.3157C106.93 20.5565 107.369 21.0113 107.592 21.5773C107.329 21.523 107.056 21.4943 106.778 21.4943C104.94 21.4943 103.388 22.734 102.911 24.4205L95.9683 21.8323L97.4134 20.2993ZM93.3171 22.5481L99.1299 24.7151H93.3171V22.5481ZM91.5283 26.3118H115.585C115.585 26.3118 115.583 27.8222 115.581 27.9112H91.5324C91.5304 27.8223 91.5283 26.3118 91.5283 26.3118ZM110.393 37.5421H96.7212C93.9823 35.6479 92.1775 32.742 91.6729 29.5079H115.441C114.936 32.742 113.131 35.6479 110.393 37.5421Z" fill="#F1F2F6"/>
<path d="M263.538 24.708C263.538 23.5651 262.81 22.592 261.8 22.2389C261.969 21.8917 262.064 21.5014 262.064 21.0889C262.064 19.649 260.909 18.4775 259.489 18.4775H258.839C258.295 18.4775 257.837 18.0636 257.774 17.5147L257.472 14.8583H255.409C254.181 14.8583 253.051 15.4034 252.308 16.3538C251.823 16.9741 251.542 17.718 251.483 18.5206C250.284 18.7426 249.372 19.8094 249.372 21.0889C249.372 21.5014 249.467 21.8917 249.636 22.2389C248.626 22.592 247.898 23.5651 247.898 24.708C247.898 25.5977 248.339 26.3844 249.011 26.8562L253.711 42.2288H257.725L262.425 26.8562C263.097 26.3845 263.538 25.5977 263.538 24.708ZM250.472 23.7003H255.555V22.0966H251.946C251.399 22.0966 250.953 21.6445 250.953 21.0889C250.953 20.5333 251.399 20.0812 251.946 20.0812H254.179V18.4775H253.076C253.133 18.0574 253.29 17.6791 253.547 17.3499C253.982 16.7939 254.677 16.4621 255.409 16.4621H256.063L256.204 17.6985C256.358 19.0569 257.491 20.0812 258.839 20.0812H259.489C260.037 20.0812 260.483 20.5333 260.483 21.0889C260.483 21.6445 260.037 22.0966 259.489 22.0966H258.345V23.7003H260.963C261.511 23.7003 261.957 24.1524 261.957 24.7081C261.957 25.2637 261.511 25.7157 260.963 25.7157H250.472C249.925 25.7157 249.479 25.2637 249.479 24.7081C249.479 24.1524 249.925 23.7003 250.472 23.7003ZM256.56 40.625H254.876L250.808 27.3195H260.628L256.56 40.625Z" fill="black"/>
</svg>
