<svg width="13" height="14" viewBox="0 0 13 14" fill="none" xmlns="http://www.w3.org/2000/svg">
<path d="M10.0898 4.52999C10.0898 3.54699 9.69927 2.60426 9.00418 1.90917C8.3091 1.21409 7.36636 0.82359 6.38336 0.82359C5.40036 0.82359 4.45762 1.21409 3.76253 1.90917C3.06745 2.60426 2.67695 3.54699 2.67695 4.52999C2.67695 8.85413 0.823751 10.0896 0.823751 10.0896H11.943C11.943 10.0896 10.0898 8.85413 10.0898 4.52999Z" stroke="#C6C7CA" stroke-width="1.56123" stroke-linecap="round" stroke-linejoin="round"/>
<path d="M7.4511 12.5607C7.3425 12.7479 7.18662 12.9033 6.99906 13.0114C6.81151 13.1194 6.59886 13.1763 6.38242 13.1763C6.16598 13.1763 5.95334 13.1194 5.76578 13.0114C5.57823 12.9033 5.42235 12.7479 5.31374 12.5607" stroke="#C6C7CA" stroke-width="1.56123" stroke-linecap="round" stroke-linejoin="round"/>
</svg>
