<svg width="16" height="18" viewBox="0 0 16 18" fill="none" xmlns="http://www.w3.org/2000/svg">
<path d="M0.763812 3.98012H2.37185H15.2362" stroke="#EE5253" stroke-width="1.48317" stroke-linecap="round" stroke-linejoin="round"/>
<path d="M4.78346 3.98002V2.37198C4.78346 1.9455 4.95288 1.53649 5.25445 1.23492C5.55602 0.933356 5.96503 0.763938 6.39151 0.763938H9.60759C10.0341 0.763938 10.4431 0.933356 10.7446 1.23492C11.0462 1.53649 11.2156 1.9455 11.2156 2.37198V3.98002M13.6277 3.98002V15.2363C13.6277 15.6628 13.4583 16.0718 13.1567 16.3734C12.8551 16.6749 12.4461 16.8444 12.0197 16.8444H3.97944C3.55296 16.8444 3.14395 16.6749 2.84239 16.3734C2.54082 16.0718 2.3714 15.6628 2.3714 15.2363V3.98002H13.6277Z" stroke="#EE5253" stroke-width="1.48317" stroke-linecap="round" stroke-linejoin="round"/>
<path d="M6.39185 8.00023V12.8244" stroke="#EE5253" stroke-width="1.48317" stroke-linecap="round" stroke-linejoin="round"/>
<path d="M9.60841 8.00023V12.8244" stroke="#EE5253" stroke-width="1.48317" stroke-linecap="round" stroke-linejoin="round"/>
</svg>
