<svg width="13" height="14" viewBox="0 0 13 14" fill="none" xmlns="http://www.w3.org/2000/svg">
<path d="M10.0895 4.52992C10.0895 3.54695 9.69902 2.60424 9.00395 1.90917C8.30888 1.2141 7.36617 0.823616 6.3832 0.823616C5.40022 0.823616 4.45751 1.2141 3.76244 1.90917C3.06737 2.60424 2.67689 3.54695 2.67689 4.52992C2.67689 8.85395 0.823735 10.0894 0.823735 10.0894H11.9427C11.9427 10.0894 10.0895 8.85395 10.0895 4.52992Z" stroke="#C6C7CA" stroke-width="1.63683" stroke-linecap="round" stroke-linejoin="round"/>
<path d="M7.4508 12.5609C7.3422 12.7481 7.18632 12.9035 6.99877 13.0115C6.81122 13.1196 6.59858 13.1764 6.38215 13.1764C6.16571 13.1764 5.95308 13.1196 5.76553 13.0115C5.57798 12.9035 5.4221 12.7481 5.3135 12.5609" stroke="#C6C7CA" stroke-width="1.63683" stroke-linecap="round" stroke-linejoin="round"/>
</svg>
