<svg width="296" height="59" viewBox="0 0 296 59" fill="none" xmlns="http://www.w3.org/2000/svg">
<rect width="58.1806" height="59" rx="13.0946" fill="#F1F2F6"/>
<mask id="path-2-inside-1_216_6098" fill="white">
<path d="M42.8168 43.7183C42.9663 43.5589 43.0116 43.3278 42.9328 43.1241L33.9048 19.7044C34.386 18.8705 34.4771 17.826 34.0573 16.8809C33.3601 15.3121 31.5166 14.6028 29.9476 15.2998C26.2482 16.9437 22.9583 19.265 20.1694 22.1994C17.3806 25.1338 15.2295 28.5374 13.7759 32.3157C13.6249 32.7081 13.5591 33.1125 13.5691 33.5087C13.6003 34.7307 14.3539 35.8741 15.5639 36.3396C16.378 36.6527 17.2442 36.5992 17.9806 36.2611L42.2313 43.8719C42.4397 43.9373 42.6673 43.8776 42.8168 43.7183ZM34.0636 23.2811L35.0203 25.7632C34.7145 26.0653 34.2868 26.2196 33.8491 26.1732C33.4638 26.1324 33.1173 25.9439 32.8736 25.6426C32.6299 25.3413 32.5184 24.9633 32.5591 24.5777C32.5999 24.1924 32.7882 23.8459 33.0896 23.6023C33.3673 23.3778 33.7102 23.2656 34.0636 23.2811ZM15.9727 35.2771C14.9562 34.886 14.4474 33.7407 14.8385 32.7245C17.671 25.3621 23.2011 19.5434 30.41 16.3402C30.8921 16.126 31.4287 16.1124 31.9211 16.3018C32.4135 16.4912 32.8026 16.8611 33.0169 17.3432C33.2311 17.8253 33.2447 18.362 33.0553 18.8544C32.8659 19.3467 32.496 19.7359 32.0139 19.9501C28.9282 21.3211 26.1842 23.2573 23.858 25.7049C21.5318 28.1525 19.7376 30.9914 18.5252 34.1428C18.1342 35.1593 16.9891 35.6682 15.9727 35.2771ZM33.3564 39.8935C33.3564 39.8419 33.358 39.7903 33.3634 39.7387C33.4043 39.3534 33.5927 39.007 33.894 38.7634C34.1953 38.5197 34.5736 38.408 34.9589 38.4487C35.7544 38.533 36.333 39.2485 36.2489 40.0443C36.2229 40.2898 36.1339 40.5219 35.9945 40.7215L33.3564 39.8935ZM37.1105 41.0716C37.2544 40.7905 37.3472 40.4834 37.381 40.1641C37.5318 38.7442 36.4985 37.467 35.0787 37.3167C34.391 37.2439 33.716 37.4432 33.1782 37.8781C32.6602 38.2969 32.3298 38.8861 32.2412 39.5435L28.9054 38.4966L29.8703 37.1706C30.0552 36.9164 29.9992 36.5604 29.745 36.3755C29.4908 36.1905 29.1348 36.2466 28.9499 36.5008L27.7592 38.137L19.0835 35.4143C19.2918 35.1621 19.464 34.8735 19.5878 34.5519C21.9323 28.4579 26.5095 23.6419 32.4762 20.9907C32.6837 20.8985 32.8757 20.7857 33.0519 20.6567L33.6339 22.1666C33.1762 22.2315 32.7428 22.4189 32.3739 22.7171C31.8361 23.1519 31.4999 23.7702 31.4271 24.4579C31.4149 24.5731 31.4103 24.6878 31.4132 24.8017C31.4276 25.3678 31.6264 25.9107 31.9884 26.3584C32.4233 26.8963 33.0415 27.2325 33.7293 27.3054C34.3468 27.3707 34.9526 27.2116 35.4494 26.8763L38.1513 33.8853L37.5109 34.1698C37.2941 34.2662 37.1672 34.4814 37.1728 34.7047C37.1747 34.7773 37.1906 34.8507 37.2218 34.9212C37.3495 35.2084 37.6859 35.3378 37.9731 35.2102L38.5612 34.9489L41.446 42.4323L37.1105 41.0716Z"/>
</mask>
<path d="M42.8168 43.7183C42.9663 43.5589 43.0116 43.3278 42.9328 43.1241L33.9048 19.7044C34.386 18.8705 34.4771 17.826 34.0573 16.8809C33.3601 15.3121 31.5166 14.6028 29.9476 15.2998C26.2482 16.9437 22.9583 19.265 20.1694 22.1994C17.3806 25.1338 15.2295 28.5374 13.7759 32.3157C13.6249 32.7081 13.5591 33.1125 13.5691 33.5087C13.6003 34.7307 14.3539 35.8741 15.5639 36.3396C16.378 36.6527 17.2442 36.5992 17.9806 36.2611L42.2313 43.8719C42.4397 43.9373 42.6673 43.8776 42.8168 43.7183ZM34.0636 23.2811L35.0203 25.7632C34.7145 26.0653 34.2868 26.2196 33.8491 26.1732C33.4638 26.1324 33.1173 25.9439 32.8736 25.6426C32.6299 25.3413 32.5184 24.9633 32.5591 24.5777C32.5999 24.1924 32.7882 23.8459 33.0896 23.6023C33.3673 23.3778 33.7102 23.2656 34.0636 23.2811ZM15.9727 35.2771C14.9562 34.886 14.4474 33.7407 14.8385 32.7245C17.671 25.3621 23.2011 19.5434 30.41 16.3402C30.8921 16.126 31.4287 16.1124 31.9211 16.3018C32.4135 16.4912 32.8026 16.8611 33.0169 17.3432C33.2311 17.8253 33.2447 18.362 33.0553 18.8544C32.8659 19.3467 32.496 19.7359 32.0139 19.9501C28.9282 21.3211 26.1842 23.2573 23.858 25.7049C21.5318 28.1525 19.7376 30.9914 18.5252 34.1428C18.1342 35.1593 16.9891 35.6682 15.9727 35.2771ZM33.3564 39.8935C33.3564 39.8419 33.358 39.7903 33.3634 39.7387C33.4043 39.3534 33.5927 39.007 33.894 38.7634C34.1953 38.5197 34.5736 38.408 34.9589 38.4487C35.7544 38.533 36.333 39.2485 36.2489 40.0443C36.2229 40.2898 36.1339 40.5219 35.9945 40.7215L33.3564 39.8935ZM37.1105 41.0716C37.2544 40.7905 37.3472 40.4834 37.381 40.1641C37.5318 38.7442 36.4985 37.467 35.0787 37.3167C34.391 37.2439 33.716 37.4432 33.1782 37.8781C32.6602 38.2969 32.3298 38.8861 32.2412 39.5435L28.9054 38.4966L29.8703 37.1706C30.0552 36.9164 29.9992 36.5604 29.745 36.3755C29.4908 36.1905 29.1348 36.2466 28.9499 36.5008L27.7592 38.137L19.0835 35.4143C19.2918 35.1621 19.464 34.8735 19.5878 34.5519C21.9323 28.4579 26.5095 23.6419 32.4762 20.9907C32.6837 20.8985 32.8757 20.7857 33.0519 20.6567L33.6339 22.1666C33.1762 22.2315 32.7428 22.4189 32.3739 22.7171C31.8361 23.1519 31.4999 23.7702 31.4271 24.4579C31.4149 24.5731 31.4103 24.6878 31.4132 24.8017C31.4276 25.3678 31.6264 25.9107 31.9884 26.3584C32.4233 26.8963 33.0415 27.2325 33.7293 27.3054C34.3468 27.3707 34.9526 27.2116 35.4494 26.8763L38.1513 33.8853L37.5109 34.1698C37.2941 34.2662 37.1672 34.4814 37.1728 34.7047C37.1747 34.7773 37.1906 34.8507 37.2218 34.9212C37.3495 35.2084 37.6859 35.3378 37.9731 35.2102L38.5612 34.9489L41.446 42.4323L37.1105 41.0716Z" fill="black"/>
<path d="M42.8168 43.7183L44.6096 45.4003L44.61 45.4L42.8168 43.7183ZM42.9328 43.1241L40.639 44.0083L40.6402 44.0116L42.9328 43.1241ZM33.9048 19.7044L31.7756 18.4756L31.1886 19.4928L31.611 20.5886L33.9048 19.7044ZM34.0573 16.8809L36.3039 15.883L36.3038 15.8826L34.0573 16.8809ZM29.9476 15.2998L28.9495 13.0533L28.9494 13.0533L29.9476 15.2998ZM13.7759 32.3157L11.4815 31.433L11.4814 31.4331L13.7759 32.3157ZM13.5691 33.5087L11.1116 33.5712L11.1116 33.5713L13.5691 33.5087ZM15.5639 36.3396L16.4465 34.0451L16.4465 34.0451L15.5639 36.3396ZM17.9806 36.2611L18.7167 33.9155L17.8143 33.6323L16.9548 34.027L17.9806 36.2611ZM42.2313 43.8719L41.4951 46.2174L41.4952 46.2174L42.2313 43.8719ZM34.0636 23.2811L36.3574 22.397L35.7788 20.8959L34.1716 20.8252L34.0636 23.2811ZM35.0203 25.7632L36.7477 27.5123L37.8931 26.3811L37.3141 24.8791L35.0203 25.7632ZM33.8491 26.1732L33.5899 28.6179L33.5904 28.6179L33.8491 26.1732ZM32.5591 24.5777L30.1144 24.3187L30.1143 24.3197L32.5591 24.5777ZM33.0896 23.6023L34.6352 25.5139L34.6353 25.5139L33.0896 23.6023ZM15.9727 35.2771L16.8556 32.9827L16.8554 32.9827L15.9727 35.2771ZM14.8385 32.7245L17.1328 33.6075L17.1329 33.6072L14.8385 32.7245ZM30.41 16.3402L31.4082 18.5868L31.4082 18.5868L30.41 16.3402ZM31.9211 16.3018L32.8039 14.0074L32.8038 14.0074L31.9211 16.3018ZM32.0139 19.9501L33.0121 22.1966L33.0122 22.1966L32.0139 19.9501ZM18.5252 34.1428L16.2308 33.2601L16.2307 33.2603L18.5252 34.1428ZM33.3564 39.8935L30.8981 39.8962L30.9001 41.6991L32.6202 42.239L33.3564 39.8935ZM33.3634 39.7387L30.9188 39.4797L30.9185 39.4826L33.3634 39.7387ZM33.894 38.7634L35.4396 40.6751L35.4398 40.6749L33.894 38.7634ZM34.9589 38.4487L35.2178 36.0041L35.2175 36.004L34.9589 38.4487ZM36.2489 40.0443L38.6936 40.303L38.6936 40.3026L36.2489 40.0443ZM35.9945 40.7215L35.2583 43.067L36.978 43.6068L38.01 42.129L35.9945 40.7215ZM37.1105 41.0716L34.9223 39.9512L33.5944 42.5446L36.3743 43.4171L37.1105 41.0716ZM37.381 40.1641L34.9364 39.9045L34.9363 39.9054L37.381 40.1641ZM35.0787 37.3167L34.8199 39.7613L34.8199 39.7613L35.0787 37.3167ZM33.1782 37.8781L31.6326 35.9664L31.6325 35.9665L33.1782 37.8781ZM32.2412 39.5435L31.5051 41.889L34.2878 42.7623L34.6775 39.8719L32.2412 39.5435ZM28.9054 38.4966L26.9176 37.0501L24.9039 39.8174L28.1693 40.8422L28.9054 38.4966ZM29.8703 37.1706L31.8581 38.6171L31.8584 38.6166L29.8703 37.1706ZM29.745 36.3755L28.2987 38.3633L28.2989 38.3635L29.745 36.3755ZM28.9499 36.5008L26.9622 35.0542L26.9621 35.0543L28.9499 36.5008ZM27.7592 38.137L27.0231 40.4825L28.708 41.0113L29.747 39.5835L27.7592 38.137ZM19.0835 35.4143L17.1879 33.849L14.8618 36.666L18.3474 37.7598L19.0835 35.4143ZM19.5878 34.5519L21.8821 35.4347L21.8821 35.4346L19.5878 34.5519ZM32.4762 20.9907L31.4784 18.744L31.478 18.7441L32.4762 20.9907ZM33.0519 20.6567L35.3457 19.7725L34.1906 16.776L31.5996 18.6732L33.0519 20.6567ZM33.6339 22.1666L33.9789 24.6006L37.0396 24.1668L35.9277 21.2824L33.6339 22.1666ZM32.3739 22.7171L33.9195 24.6289L33.9196 24.6287L32.3739 22.7171ZM31.4271 24.4579L33.8717 24.7171L33.8718 24.7165L31.4271 24.4579ZM31.9884 26.3584L30.0766 27.9039L30.0768 27.9041L31.9884 26.3584ZM33.7293 27.3054L33.4704 29.75L33.4707 29.7501L33.7293 27.3054ZM35.4494 26.8763L37.7432 25.992L36.6328 23.1115L34.074 24.8387L35.4494 26.8763ZM38.1513 33.8853L39.1494 36.1319L41.286 35.1826L40.4451 33.0011L38.1513 33.8853ZM37.5109 34.1698L36.5127 31.9233L36.5122 31.9235L37.5109 34.1698ZM37.2218 34.9212L34.9749 35.9184L34.9752 35.9192L37.2218 34.9212ZM37.9731 35.2102L38.9712 37.4568L38.9713 37.4568L37.9731 35.2102ZM38.5612 34.9489L40.855 34.0647L39.9253 31.6529L37.5631 32.7023L38.5612 34.9489ZM41.446 42.4323L40.7098 44.7778L45.5732 46.3042L43.7398 41.5481L41.446 42.4323ZM44.61 45.4C45.4031 44.5543 45.6468 43.3253 45.2253 42.2366L40.6402 44.0116C40.3765 43.3303 40.5295 42.5635 41.0237 42.0366L44.61 45.4ZM45.2266 42.2399L36.1986 18.8201L31.611 20.5886L40.639 44.0083L45.2266 42.2399ZM36.034 20.9331C36.8892 19.4512 37.0579 17.5803 36.3039 15.883L31.8106 17.8788C31.8963 18.0718 31.8828 18.2898 31.7756 18.4756L36.034 20.9331ZM36.3038 15.8826C35.0553 13.0731 31.7592 11.8049 28.9495 13.0533L30.9458 17.5464C31.274 17.4006 31.6649 17.551 31.8107 17.8792L36.3038 15.8826ZM28.9494 13.0533C24.9549 14.8283 21.3988 17.3374 18.3875 20.5059L21.9514 23.8929C24.5178 21.1926 27.5414 19.0592 30.9459 17.5464L28.9494 13.0533ZM18.3875 20.5059C15.3763 23.6743 13.0511 27.3533 11.4815 31.433L16.0703 33.1984C17.408 29.7214 19.3849 26.5933 21.9514 23.8929L18.3875 20.5059ZM11.4814 31.4331C11.2124 32.1325 11.0935 32.8585 11.1116 33.5712L16.0267 33.4462C16.0246 33.3665 16.0375 33.2836 16.0703 33.1982L11.4814 31.4331ZM11.1116 33.5713C11.1671 35.7496 12.5085 37.7982 14.6813 38.634L16.4465 34.0451C16.1992 33.95 16.0334 33.7118 16.0267 33.4461L11.1116 33.5713ZM14.6812 38.634C16.1419 39.1959 17.6961 39.0968 19.0063 38.4952L16.9548 34.027C16.7924 34.1016 16.614 34.1096 16.4465 34.0451L14.6812 38.634ZM17.2445 38.6066L41.4951 46.2174L42.9674 41.5263L18.7167 33.9155L17.2445 38.6066ZM41.4952 46.2174C42.6036 46.5652 43.8141 46.2483 44.6096 45.4003L41.024 42.0363C41.5206 41.507 42.2758 41.3093 42.9673 41.5263L41.4952 46.2174ZM31.7697 24.1653L32.7265 26.6474L37.3141 24.8791L36.3574 22.397L31.7697 24.1653ZM33.2928 24.0141C33.505 23.8046 33.8039 23.6964 34.1079 23.7286L33.5904 28.6179C34.7697 28.7427 35.9239 28.3259 36.7477 27.5123L33.2928 24.0141ZM34.1084 23.7286C34.3709 23.7565 34.6188 23.8911 34.7851 24.0968L30.9621 27.1884C31.6158 27.9967 32.5566 28.5083 33.5899 28.6179L34.1084 23.7286ZM34.7851 24.0968C34.9519 24.303 35.0314 24.574 35.0038 24.8357L30.1143 24.3197C30.0053 25.3526 30.308 26.3796 30.9621 27.1884L34.7851 24.0968ZM35.0037 24.8367C34.9759 25.0994 34.841 25.3476 34.6352 25.5139L31.544 21.6906C30.7355 22.3443 30.2239 23.2853 30.1144 24.3187L35.0037 24.8367ZM34.6353 25.5139C34.4463 25.6667 34.201 25.7479 33.9555 25.7371L34.1716 20.8252C33.2193 20.7833 32.2882 21.0889 31.544 21.6906L34.6353 25.5139ZM16.8554 32.9827C17.106 33.0791 17.2295 33.3564 17.1328 33.6075L12.5443 31.8414C11.6653 34.1251 12.8064 36.693 15.09 37.5715L16.8554 32.9827ZM17.1329 33.6072C19.7313 26.8533 24.7951 21.5252 31.4082 18.5868L29.4117 14.0937C21.6071 17.5616 15.6107 23.8708 12.5441 31.8418L17.1329 33.6072ZM31.4082 18.5868C31.2944 18.6373 31.1545 18.6408 31.0385 18.5962L32.8038 14.0074C31.7029 13.5839 30.4897 13.6147 29.4117 14.0937L31.4082 18.5868ZM31.0384 18.5962C30.9223 18.5515 30.8208 18.4551 30.7703 18.3414L35.2634 16.3449C34.7844 15.267 33.9047 14.431 32.8039 14.0074L31.0384 18.5962ZM30.7703 18.3414C30.7198 18.2277 30.7162 18.0878 30.7609 17.9716L35.3497 19.7371C35.7732 18.6362 35.7424 17.4229 35.2634 16.3449L30.7703 18.3414ZM30.7609 17.9716C30.8056 17.8555 30.902 17.7541 31.0157 17.7035L33.0122 22.1966C34.0901 21.7177 34.9261 20.838 35.3497 19.7371L30.7609 17.9716ZM31.0157 17.7035C27.635 19.2056 24.6246 21.3298 22.0761 24.0114L25.6399 27.3985C27.7437 25.1849 30.2214 23.4366 33.0121 22.1966L31.0157 17.7035ZM22.0761 24.0114C19.5275 26.693 17.5592 29.8074 16.2308 33.2601L20.8196 35.0256C21.9161 32.1754 23.5362 29.612 25.6399 27.3985L22.0761 24.0114ZM16.2307 33.2603C16.3272 33.0096 16.6046 32.8862 16.8556 32.9827L15.0898 37.5714C17.3735 38.4502 19.9412 37.3091 20.8196 35.0254L16.2307 33.2603ZM35.8148 39.8907C35.8148 39.8916 35.8148 39.902 35.8141 39.919C35.8134 39.9362 35.8118 39.9621 35.8084 39.9948L30.9185 39.4826C30.901 39.6491 30.898 39.7933 30.8981 39.8962L35.8148 39.8907ZM35.8081 39.9977C35.7802 40.2606 35.6453 40.5087 35.4396 40.6751L32.3484 36.8516C31.54 37.5052 31.0283 38.4462 30.9188 39.4797L35.8081 39.9977ZM35.4398 40.6749C35.234 40.8413 34.9631 40.9212 34.7003 40.8934L35.2175 36.004C34.184 35.8947 33.1567 36.1981 32.3482 36.8518L35.4398 40.6749ZM34.7 40.8934C34.1452 40.8346 33.7457 40.3398 33.8042 39.786L38.6936 40.3026C38.9203 38.1572 37.3636 36.2313 35.2178 36.0041L34.7 40.8934ZM33.8042 39.7855C33.8233 39.6058 33.8877 39.4447 33.979 39.314L38.01 42.129C38.3801 41.5991 38.6226 40.9738 38.6936 40.303L33.8042 39.7855ZM36.7307 38.376L34.0926 37.548L32.6202 42.239L35.2583 43.067L36.7307 38.376ZM39.2987 42.192C39.5783 41.6458 39.7596 41.0469 39.8257 40.4228L34.9363 39.9054C34.9348 39.9198 34.9305 39.9353 34.9223 39.9512L39.2987 42.192ZM39.8256 40.4237C40.1199 37.6522 38.1066 35.1651 35.3375 34.872L34.8199 39.7613C34.8535 39.7649 34.8823 39.7791 34.9073 39.8101C34.9323 39.841 34.9399 39.8715 34.9364 39.9045L39.8256 40.4237ZM35.3375 34.872C34.0014 34.7305 32.6774 35.1216 31.6326 35.9664L34.7238 39.7897C34.7432 39.774 34.7582 39.7677 34.7687 39.7646C34.7791 39.7615 34.7951 39.7587 34.8199 39.7613L35.3375 34.872ZM31.6325 35.9665C30.6256 36.7806 29.9772 37.9366 29.8049 39.2151L34.6775 39.8719C34.6805 39.8492 34.6864 39.8352 34.6916 39.826C34.6967 39.8169 34.7057 39.8044 34.7239 39.7897L31.6325 35.9665ZM32.9773 37.1979L29.6415 36.1511L28.1693 40.8422L31.5051 41.889L32.9773 37.1979ZM30.8931 39.9431L31.8581 38.6171L27.8826 35.7241L26.9176 37.0501L30.8931 39.9431ZM31.8584 38.6166C32.8409 37.2658 32.5445 35.3719 31.1911 34.3874L28.2989 38.3635C27.4539 37.7488 27.2695 36.5671 27.8822 35.7246L31.8584 38.6166ZM31.1914 34.3876C29.8393 33.4038 27.9459 33.7025 26.9622 35.0542L30.9375 37.9474C30.3237 38.7908 29.1423 38.9771 28.2987 38.3633L31.1914 34.3876ZM26.9621 35.0543L25.7715 36.6906L29.747 39.5835L30.9376 37.9472L26.9621 35.0543ZM28.4953 35.7915L19.8196 33.0688L18.3474 37.7598L27.0231 40.4825L28.4953 35.7915ZM20.9791 36.9796C21.3509 36.5294 21.6602 36.0115 21.8821 35.4347L17.2934 33.669C17.2679 33.7354 17.2327 33.7948 17.1879 33.849L20.9791 36.9796ZM21.8821 35.4346C23.9926 29.9492 28.1035 25.6237 33.4744 23.2373L31.478 18.7441C24.9154 21.6601 19.872 26.9667 17.2934 33.6691L21.8821 35.4346ZM33.474 23.2374C33.8484 23.0711 34.1921 22.8687 34.5042 22.6402L31.5996 18.6732C31.5592 18.7027 31.519 18.7259 31.4784 18.744L33.474 23.2374ZM30.7581 21.5409L31.3401 23.0508L35.9277 21.2824L35.3457 19.7725L30.7581 21.5409ZM33.2889 19.7326C32.3893 19.8601 31.5413 20.2289 30.8283 20.8055L33.9196 24.6287C33.9332 24.6177 33.9443 24.6117 33.9525 24.6081C33.9609 24.6044 33.9694 24.602 33.9789 24.6006L33.2889 19.7326ZM30.8284 20.8053C29.7834 21.6502 29.1238 22.8632 28.9824 24.1993L33.8718 24.7165C33.8744 24.6918 33.8805 24.6768 33.8857 24.6672C33.8909 24.6577 33.9002 24.6444 33.9195 24.6289L30.8284 20.8053ZM28.9825 24.1987C28.959 24.4199 28.95 24.6421 28.9556 24.8642L33.8707 24.7392C33.8706 24.7336 33.8708 24.7263 33.8717 24.7171L28.9825 24.1987ZM28.9556 24.8642C28.9838 25.9732 29.3757 27.0369 30.0766 27.9039L33.9001 24.8129C33.8868 24.7964 33.8805 24.7834 33.877 24.7741C33.8736 24.7647 33.8711 24.7537 33.8707 24.7392L28.9556 24.8642ZM30.0768 27.9041C30.9216 28.949 32.1344 29.6085 33.4704 29.75L33.9883 24.8607C33.9633 24.8581 33.9482 24.8519 33.9386 24.8467C33.9291 24.8415 33.9157 24.8322 33.9 24.8127L30.0768 27.9041ZM33.4707 29.7501C34.6759 29.8776 35.8585 29.5661 36.8248 28.9138L34.074 24.8387C34.0468 24.8571 34.0176 24.8638 33.9879 24.8607L33.4707 29.7501ZM33.1556 27.7605L35.8574 34.7696L40.4451 33.0011L37.7432 25.992L33.1556 27.7605ZM37.1531 31.6388L36.5127 31.9233L38.509 36.4164L39.1494 36.1319L37.1531 31.6388ZM36.5122 31.9235C35.3561 32.4374 34.6852 33.5843 34.7153 34.7672L39.6304 34.6422C39.6491 35.3785 39.232 36.095 38.5095 36.4162L36.5122 31.9235ZM34.7153 34.7672C34.7252 35.1577 34.8109 35.5491 34.9749 35.9184L39.4688 33.9239C39.5702 34.1522 39.6241 34.3969 39.6304 34.6422L34.7153 34.7672ZM34.9752 35.9192C35.6542 37.4476 37.4436 38.1355 38.9712 37.4568L36.9751 32.9636C37.9282 32.5401 39.0447 32.9692 39.4684 33.9231L34.9752 35.9192ZM38.9713 37.4568L39.5593 37.1955L37.5631 32.7023L36.975 32.9636L38.9713 37.4568ZM36.2674 35.8332L39.1522 43.3165L43.7398 41.5481L40.855 34.0647L36.2674 35.8332ZM42.1821 40.0868L37.8466 38.7261L36.3743 43.4171L40.7098 44.7778L42.1821 40.0868Z" fill="#0A191E" mask="url(#path-2-inside-1_216_6098)"/>
<path d="M27.2862 20.4823C27.2879 20.4848 27.2896 20.4873 27.2913 20.4898C27.2913 20.4898 27.2913 20.4898 27.2913 20.4898C27.3556 20.5843 27.3877 20.6915 27.3898 20.7982C27.3934 20.9805 27.3093 21.1611 27.1489 21.2741L27.1457 21.2763L27.1393 21.2807L27.1366 21.2826C26.8793 21.4574 26.53 21.3929 26.3517 21.1394L26.8123 20.8155L26.8163 20.8127L26.817 20.8122L26.8171 20.8122L26.8185 20.8112L26.8203 20.8099L26.8215 20.8091L26.8241 20.8073L26.8246 20.8069L27.2862 20.4823ZM27.2862 20.4823C27.1072 20.2278 26.7567 20.1651 26.5003 20.3396C26.4993 20.3403 26.4983 20.341 26.4973 20.3417C26.4964 20.3423 26.4956 20.3428 26.4947 20.3434C26.4945 20.3436 26.4943 20.3438 26.494 20.3439C26.4878 20.3482 26.4817 20.3526 26.4757 20.3571C26.3236 20.4711 26.2438 20.6484 26.2483 20.8272C26.251 20.9325 26.2829 21.0383 26.3465 21.1318C26.3482 21.1343 26.3499 21.1368 26.3517 21.1393L26.8123 20.8155L26.8162 20.8127L26.817 20.8122L26.8171 20.8121L26.8185 20.8112L26.8203 20.8099L26.8215 20.809L26.8226 20.8082L26.8231 20.8079L27.2862 20.4823Z" fill="black" stroke="#0A191E" stroke-width="2.45524"/>
<mask id="path-5-inside-2_216_6098" fill="white">
<path d="M28.5277 20.3819C29.4858 19.8027 30.4906 19.2784 31.5141 18.8235C31.8015 18.6959 31.9307 18.3594 31.8031 18.0723C31.6755 17.785 31.3391 17.6556 31.0519 17.7833C29.9849 18.2574 28.9375 18.804 27.9388 19.4078C27.7574 19.5174 27.6591 19.7122 27.6641 19.9098C27.6666 20.0054 27.6931 20.1017 27.7461 20.1893C27.9088 20.4583 28.2587 20.5446 28.5277 20.3819Z"/>
</mask>
<path d="M28.5277 20.3819C29.4858 19.8027 30.4906 19.2784 31.5141 18.8235C31.8015 18.6959 31.9307 18.3594 31.8031 18.0723C31.6755 17.785 31.3391 17.6556 31.0519 17.7833C29.9849 18.2574 28.9375 18.804 27.9388 19.4078C27.7574 19.5174 27.6591 19.7122 27.6641 19.9098C27.6666 20.0054 27.6931 20.1017 27.7461 20.1893C27.9088 20.4583 28.2587 20.5446 28.5277 20.3819Z" fill="black"/>
<path d="M28.5277 20.3819L27.2559 18.2782L27.2555 18.2784L28.5277 20.3819ZM31.5141 18.8235L30.5164 16.5768L30.5158 16.577L31.5141 18.8235ZM31.8031 18.0723L29.5564 19.0702L29.5567 19.0708L31.8031 18.0723ZM31.0519 17.7833L32.0501 20.0298L32.0503 20.0297L31.0519 17.7833ZM27.9388 19.4078L26.6669 17.304L26.6667 17.3042L27.9388 19.4078ZM27.7461 20.1893L25.6424 21.4613L25.6425 21.4615L27.7461 20.1893ZM29.7995 22.4857C30.6695 21.9597 31.583 21.4831 32.5125 21.07L30.5158 16.577C29.3983 17.0736 28.3021 17.6456 27.2559 18.2782L29.7995 22.4857ZM32.5119 21.0703C34.0415 20.391 34.7283 18.6007 34.0495 17.0737L29.5567 19.0708C29.1332 18.118 29.5615 17.0008 30.5164 16.5768L32.5119 21.0703ZM34.0498 17.0744C33.3708 15.5457 31.5812 14.8578 30.0534 15.5369L32.0503 20.0297C31.0971 20.4534 29.9802 20.0243 29.5564 19.0702L34.0498 17.0744ZM30.0536 15.5368C28.8926 16.0527 27.7537 16.647 26.6669 17.304L29.2106 21.5115C30.1212 20.961 31.0773 20.4621 32.0501 20.0298L30.0536 15.5368ZM26.6667 17.3042C25.7001 17.8886 25.18 18.9275 25.2066 19.9723L30.1217 19.8473C30.1382 20.4968 29.8147 21.1462 29.2109 21.5114L26.6667 17.3042ZM25.2066 19.9723C25.2196 20.4836 25.3626 20.9985 25.6424 21.4613L29.8498 18.9174C30.0237 19.205 30.1135 19.5273 30.1217 19.8473L25.2066 19.9723ZM25.6425 21.4615C26.5073 22.8914 28.3683 23.3513 29.7999 22.4855L27.2555 18.2784C28.1491 17.7379 29.3102 18.0252 29.8497 18.9171L25.6425 21.4615Z" fill="#0A191E" mask="url(#path-5-inside-2_216_6098)"/>
<mask id="path-7-inside-3_216_6098" fill="white">
<path d="M35.4145 32.7414C35.4266 32.6282 35.4312 32.5135 35.4283 32.4004C35.3954 31.1078 34.3998 30.0302 33.1124 29.8939C31.6926 29.7436 30.4152 30.7764 30.2649 32.1961C30.2529 32.3093 30.2483 32.424 30.2511 32.5371C30.284 33.8297 31.2797 34.9073 32.5672 35.0436C33.9869 35.1938 35.2642 34.1611 35.4145 32.7414ZM32.687 33.9115C31.9655 33.8351 31.4076 33.2318 31.3892 32.5082C31.3876 32.4446 31.3902 32.3799 31.397 32.316C31.4812 31.5204 32.197 30.9418 32.9925 31.026C33.7139 31.1024 34.2718 31.7057 34.2902 32.4293C34.2918 32.4929 34.2893 32.5576 34.2824 32.6215C34.1981 33.417 33.4825 33.9957 32.687 33.9115Z"/>
</mask>
<path d="M35.4145 32.7414C35.4266 32.6282 35.4312 32.5135 35.4283 32.4004C35.3954 31.1078 34.3998 30.0302 33.1124 29.8939C31.6926 29.7436 30.4152 30.7764 30.2649 32.1961C30.2529 32.3093 30.2483 32.424 30.2511 32.5371C30.284 33.8297 31.2797 34.9073 32.5672 35.0436C33.9869 35.1938 35.2642 34.1611 35.4145 32.7414ZM32.687 33.9115C31.9655 33.8351 31.4076 33.2318 31.3892 32.5082C31.3876 32.4446 31.3902 32.3799 31.397 32.316C31.4812 31.5204 32.197 30.9418 32.9925 31.026C33.7139 31.1024 34.2718 31.7057 34.2902 32.4293C34.2918 32.4929 34.2893 32.5576 34.2824 32.6215C34.1981 33.417 33.4825 33.9957 32.687 33.9115Z" fill="black"/>
<path d="M35.4145 32.7414L32.97 32.4813L32.9698 32.4826L35.4145 32.7414ZM33.1124 29.8939L32.8535 32.3386L32.8536 32.3386L33.1124 29.8939ZM30.2649 32.1961L32.7094 32.4562L32.7096 32.4549L30.2649 32.1961ZM32.5672 35.0436L32.3084 37.4882L32.3085 37.4882L32.5672 35.0436ZM32.687 33.9115L32.4281 36.3562L32.4283 36.3562L32.687 33.9115ZM31.397 32.316L33.8415 32.5762L33.8416 32.5749L31.397 32.316ZM32.9925 31.026L33.2514 28.5813L33.2512 28.5813L32.9925 31.026ZM34.2824 32.6215L31.8379 32.3613L31.8378 32.3624L34.2824 32.6215ZM37.8591 33.0015C37.8825 32.7811 37.8914 32.5586 37.8858 32.3379L32.9707 32.4629C32.9709 32.4684 32.9706 32.4754 32.97 32.4813L37.8591 33.0015ZM37.8858 32.3379C37.8215 29.8097 35.8831 27.7151 33.3711 27.4493L32.8536 32.3386C32.8806 32.3415 32.909 32.3535 32.9352 32.3818C32.9614 32.4102 32.9701 32.4382 32.9707 32.4629L37.8858 32.3379ZM33.3712 27.4493C30.6014 27.156 28.1135 29.1673 27.8202 31.9373L32.7096 32.4549C32.7131 32.4216 32.7271 32.393 32.7582 32.3679C32.7892 32.3428 32.8201 32.3351 32.8535 32.3386L33.3712 27.4493ZM27.8204 31.936C27.7969 32.1564 27.788 32.3789 27.7936 32.5996L32.7087 32.4746C32.7085 32.4691 32.7088 32.4621 32.7094 32.4562L27.8204 31.936ZM27.7936 32.5996C27.8579 35.1279 29.7964 37.2223 32.3084 37.4882L32.826 32.5989C32.7989 32.596 32.7704 32.584 32.7442 32.5556C32.718 32.5272 32.7093 32.4992 32.7087 32.4746L27.7936 32.5996ZM32.3085 37.4882C35.0782 37.7814 37.5659 35.7701 37.8592 33.0002L32.9698 32.4826C32.9663 32.5159 32.9523 32.5444 32.9213 32.5695C32.8902 32.5946 32.8593 32.6024 32.8259 32.5989L32.3085 37.4882ZM32.9459 31.4669C33.447 31.5199 33.8337 31.9319 33.8468 32.4457L28.9317 32.5707C28.9816 34.5318 30.4841 36.1504 32.4281 36.3562L32.9459 31.4669ZM33.8468 32.4457C33.8479 32.4893 33.8462 32.5324 33.8415 32.5762L28.9525 32.0557C28.9342 32.2273 28.9273 32.3999 28.9317 32.5707L33.8468 32.4457ZM33.8416 32.5749C33.7829 33.1297 33.2881 33.5293 32.7338 33.4707L33.2512 28.5813C31.1059 28.3543 29.1796 29.9112 28.9523 32.0571L33.8416 32.5749ZM32.7336 33.4707C32.2324 33.4176 31.8457 33.0055 31.8327 32.4918L36.7477 32.3668C36.6979 30.4058 35.1955 28.7872 33.2514 28.5813L32.7336 33.4707ZM31.8327 32.4918C31.8316 32.4482 31.8333 32.4051 31.8379 32.3613L36.727 32.8818C36.7452 32.7102 36.7521 32.5376 36.7477 32.3668L31.8327 32.4918ZM31.8378 32.3624C31.8965 31.8083 32.3909 31.4081 32.9458 31.4669L32.4283 36.3562C34.5741 36.5833 36.4998 35.0258 36.7271 32.8806L31.8378 32.3624Z" fill="#0A191E" mask="url(#path-7-inside-3_216_6098)"/>
<mask id="path-9-inside-4_216_6098" fill="white">
<path d="M28.3321 32.7734C28.3442 32.6602 28.3488 32.5455 28.3459 32.4324C28.313 31.1398 27.3174 30.0622 26.0299 29.926C25.3421 29.8531 24.6672 30.0525 24.1294 30.4873C23.5915 30.9221 23.2553 31.5404 23.1824 32.2282C23.1704 32.3413 23.1659 32.4559 23.1687 32.569C23.2016 33.8616 24.1973 34.9392 25.4848 35.0755C26.9044 35.2259 28.1817 34.1931 28.3321 32.7734ZM25.6046 33.9436C24.8831 33.8672 24.3252 33.2638 24.3068 32.5402C24.3052 32.4766 24.3078 32.4119 24.3145 32.3481C24.3554 31.9627 24.5438 31.6163 24.8452 31.3726C25.1465 31.129 25.5247 31.0172 25.9101 31.0581C26.6315 31.1345 27.1894 31.7378 27.2078 32.4614C27.2094 32.525 27.2069 32.5897 27.2001 32.6536C27.1158 33.449 26.4001 34.0277 25.6046 33.9436Z"/>
</mask>
<path d="M28.3321 32.7734C28.3442 32.6602 28.3488 32.5455 28.3459 32.4324C28.313 31.1398 27.3174 30.0622 26.0299 29.926C25.3421 29.8531 24.6672 30.0525 24.1294 30.4873C23.5915 30.9221 23.2553 31.5404 23.1824 32.2282C23.1704 32.3413 23.1659 32.4559 23.1687 32.569C23.2016 33.8616 24.1973 34.9392 25.4848 35.0755C26.9044 35.2259 28.1817 34.1931 28.3321 32.7734ZM25.6046 33.9436C24.8831 33.8672 24.3252 33.2638 24.3068 32.5402C24.3052 32.4766 24.3078 32.4119 24.3145 32.3481C24.3554 31.9627 24.5438 31.6163 24.8452 31.3726C25.1465 31.129 25.5247 31.0172 25.9101 31.0581C26.6315 31.1345 27.1894 31.7378 27.2078 32.4614C27.2094 32.525 27.2069 32.5897 27.2001 32.6536C27.1158 33.449 26.4001 34.0277 25.6046 33.9436Z" fill="black"/>
<path d="M28.3321 32.7734L25.8876 32.5135L25.8875 32.5144L28.3321 32.7734ZM26.0299 29.926L25.7709 32.3706L25.7712 32.3707L26.0299 29.926ZM24.1294 30.4873L25.6749 32.3991L25.6749 32.3991L24.1294 30.4873ZM23.1824 32.2282L25.6271 32.4872L25.6271 32.4872L23.1824 32.2282ZM25.4848 35.0755L25.7437 32.6309L25.7436 32.6309L25.4848 35.0755ZM25.6046 33.9436L25.3457 36.3883L25.346 36.3883L25.6046 33.9436ZM24.3145 32.3481L21.8699 32.0888L21.8698 32.0897L24.3145 32.3481ZM25.9101 31.0581L26.169 28.6134L26.169 28.6134L25.9101 31.0581ZM27.2001 32.6536L24.7555 32.3933L24.7554 32.3946L27.2001 32.6536ZM30.7767 33.0334C30.8001 32.8131 30.809 32.5907 30.8034 32.3699L25.8884 32.4949C25.8885 32.5004 25.8882 32.5073 25.8876 32.5135L30.7767 33.0334ZM30.8034 32.3699C30.7391 29.8417 28.8007 27.7471 26.2886 27.4813L25.7712 32.3707C25.7982 32.3735 25.8266 32.3855 25.8528 32.4139C25.879 32.4423 25.8877 32.4703 25.8884 32.4949L30.8034 32.3699ZM26.2889 27.4813C24.9526 27.3398 23.6286 27.7309 22.5838 28.5756L25.6749 32.3991C25.6944 32.3833 25.7094 32.377 25.7198 32.3739C25.7302 32.3708 25.7462 32.368 25.7709 32.3706L26.2889 27.4813ZM22.5838 28.5756C21.5389 29.4204 20.8793 30.6332 20.7377 31.9692L25.6271 32.4872C25.6297 32.4623 25.6358 32.4472 25.641 32.4376C25.6463 32.428 25.6556 32.4147 25.6749 32.3991L22.5838 28.5756ZM20.7378 31.9691C20.7144 32.1895 20.7056 32.4116 20.7112 32.6315L25.6263 32.5065C25.6261 32.5003 25.6264 32.493 25.6271 32.4872L20.7378 31.9691ZM20.7112 32.6315C20.7755 35.1597 22.7139 37.2543 25.226 37.5202L25.7436 32.6309C25.7165 32.628 25.6881 32.616 25.6619 32.5876C25.6356 32.5592 25.6269 32.5311 25.6263 32.5065L20.7112 32.6315ZM25.2259 37.5202C27.9959 37.8136 30.4833 35.802 30.7768 33.0325L25.8875 32.5144C25.8839 32.5479 25.8698 32.5765 25.8388 32.6016C25.8077 32.6267 25.7769 32.6344 25.7437 32.6309L25.2259 37.5202ZM25.8634 31.4989C26.3647 31.552 26.7513 31.964 26.7643 32.4777L21.8492 32.6027C21.8991 34.5637 23.4015 36.1824 25.3457 36.3883L25.8634 31.4989ZM26.7643 32.4777C26.7655 32.5228 26.7636 32.5653 26.7592 32.6065L21.8698 32.0897C21.852 32.2585 21.8449 32.4304 21.8492 32.6027L26.7643 32.4777ZM26.7592 32.6074C26.7313 32.87 26.5965 33.1179 26.3909 33.2842L23.2994 29.4611C22.4911 30.1147 21.9795 31.0555 21.8699 32.0888L26.7592 32.6074ZM26.3909 33.2842C26.1851 33.4506 25.9141 33.5306 25.6512 33.5027L26.169 28.6134C25.1352 28.5039 24.1078 28.8073 23.2994 29.4611L26.3909 33.2842ZM25.6512 33.5027C25.15 33.4497 24.7633 33.0377 24.7503 32.5239L29.6654 32.3989C29.6155 30.4378 28.113 28.8193 26.169 28.6134L25.6512 33.5027ZM24.7503 32.5239C24.7492 32.4803 24.7509 32.4371 24.7555 32.3933L29.6446 32.9138C29.6628 32.7422 29.6697 32.5697 29.6654 32.3989L24.7503 32.5239ZM24.7554 32.3946C24.8141 31.84 25.3087 31.4403 25.8631 31.4989L25.346 36.3883C27.4914 36.6152 29.4175 35.0581 29.6447 32.9125L24.7554 32.3946Z" fill="#0A191E" mask="url(#path-9-inside-4_216_6098)"/>
<mask id="path-11-inside-5_216_6098" fill="white">
<path d="M30.596 28.9603L30.7818 27.2055C30.8152 26.893 30.5883 26.6126 30.2758 26.5795C29.9631 26.5464 29.6829 26.773 29.6498 27.0856L29.464 28.8403C29.4613 28.8656 29.4603 28.8907 29.4609 28.9154C29.4681 29.1966 29.6827 29.4359 29.97 29.4662C30.2826 29.4995 30.5629 29.2729 30.596 28.9603Z"/>
</mask>
<path d="M30.596 28.9603L30.7818 27.2055C30.8152 26.893 30.5883 26.6126 30.2758 26.5795C29.9631 26.5464 29.6829 26.773 29.6498 27.0856L29.464 28.8403C29.4613 28.8656 29.4603 28.8907 29.4609 28.9154C29.4681 29.1966 29.6827 29.4359 29.97 29.4662C30.2826 29.4995 30.5629 29.2729 30.596 28.9603Z" fill="black"/>
<path d="M30.596 28.9603L28.1513 28.7014L28.1513 28.7014L30.596 28.9603ZM30.7818 27.2055L28.3374 26.9438L28.3371 26.9466L30.7818 27.2055ZM30.2758 26.5795L30.0165 29.0241L30.0169 29.0242L30.2758 26.5795ZM29.6498 27.0856L27.2051 26.8267L27.2051 26.8267L29.6498 27.0856ZM29.464 28.8403L31.9083 29.1028L31.9087 29.0992L29.464 28.8403ZM29.97 29.4662L30.2298 27.0217L30.2286 27.0215L29.97 29.4662ZM33.0407 29.2191L33.2265 27.4643L28.3371 26.9466L28.1513 28.7014L33.0407 29.2191ZM33.2262 27.4671C33.4046 25.8005 32.1953 24.3107 30.5347 24.1348L30.0169 29.0242C28.9813 28.9145 28.2259 27.9856 28.3374 26.9438L33.2262 27.4671ZM30.535 24.1349C28.8717 23.9585 27.3812 25.1642 27.2051 26.8267L32.0945 27.3444C31.9846 28.3818 31.0545 29.1342 30.0165 29.0241L30.535 24.1349ZM27.2051 26.8267L27.0193 28.5815L31.9087 29.0992L32.0945 27.3444L27.2051 26.8267ZM27.0197 28.5778C27.0051 28.7139 27.0001 28.8476 27.0034 28.9779L31.9185 28.8529C31.9205 28.9337 31.9175 29.0173 31.9083 29.1028L27.0197 28.5778ZM27.0034 28.9779C27.0415 30.4758 28.1808 31.749 29.7115 31.9109L30.2286 27.0215C31.1847 27.1227 31.8947 27.9174 31.9185 28.8529L27.0034 28.9779ZM29.7103 31.9108C31.3736 32.0876 32.8646 30.8819 33.0407 29.2191L28.1513 28.7014C28.2612 27.6639 29.1916 26.9113 30.2298 27.0217L29.7103 31.9108Z" fill="#0A191E" mask="url(#path-11-inside-5_216_6098)"/>
<path d="M26.8243 27.2376C26.7952 27.3307 26.7864 27.4317 26.8023 27.5347C26.8024 27.5353 26.8025 27.536 26.8026 27.5366C26.8026 27.5367 26.8026 27.5367 26.8026 27.5367C26.8026 27.5369 26.8026 27.537 26.8027 27.5372C26.8063 27.5599 26.811 27.5822 26.8168 27.604C26.8372 27.6811 26.8709 27.7519 26.915 27.8143C26.9361 27.7466 26.9465 27.6746 26.9446 27.6008C26.9439 27.5736 26.9415 27.5452 26.937 27.516C26.9369 27.5158 26.9369 27.5157 26.9369 27.5156C26.9369 27.5155 26.9369 27.5155 26.9369 27.5154C26.9368 27.5147 26.9367 27.514 26.9365 27.5133M26.8243 27.2376L26.9365 27.5133M26.8243 27.2376C26.8806 27.3173 26.92 27.4106 26.9365 27.5133M26.8243 27.2376L26.9365 27.5133M26.1963 27.0561C26.1963 27.0561 26.1963 27.0561 26.1963 27.0561C25.9109 27.101 25.7087 27.3508 25.7159 27.632C25.7165 27.6568 25.7187 27.6818 25.7227 27.7068C25.7717 28.0173 26.0629 28.2294 26.3734 28.1805C26.3735 28.1805 26.3735 28.1805 26.3735 28.1805L26.3735 28.1805L26.1963 27.0561Z" fill="black" stroke="#0A191E" stroke-width="2.45524"/>
<rect x="79.1064" width="58.1806" height="59" rx="13.0946" fill="#FFB30E"/>
<rect x="158.212" width="58.1806" height="59" rx="13.0946" fill="#F1F2F6"/>
<rect x="237.318" width="58.1806" height="59" rx="13.0946" fill="#F1F2F6"/>
<path d="M194.208 20.6803L194.212 20.6017C194.235 20.1361 194.079 19.7018 193.772 19.3795C193.362 18.9494 192.724 18.7629 192.058 18.8829L184.889 20.1738C184.533 19.7386 184.029 19.4837 183.484 19.4837C183.029 19.4837 182.576 19.6637 182.211 19.9901L176.373 25.2041C175.934 25.5956 175.69 26.1383 175.704 26.694C175.707 26.84 175.731 26.9837 175.768 27.1242C175.376 27.4032 175.09 27.8594 174.997 28.4197L173.901 35.0823L173.822 35.08L173.875 35.2386L173.752 35.9831C173.653 36.5862 173.798 37.1694 174.149 37.5832C174.354 37.8251 174.619 37.9869 174.913 38.0766C176.161 41.0942 178.752 46.2258 181.947 46.2258C182.418 46.2258 182.884 46.1151 183.332 45.897C185.205 44.9847 185.039 40.6603 184.712 37.839L184.724 37.8385C185.717 37.8046 186.682 36.9358 186.921 35.8602L186.997 35.5175C187.4 35.4463 187.775 35.2868 188.082 35.0464L190.166 33.4123C190.448 33.191 190.659 32.905 190.811 32.5911L191.643 32.4888C192.582 32.3734 193.371 31.7061 193.63 30.8854C195.178 31.3234 197.37 31.8438 199.061 31.8438C199.061 31.8438 199.061 31.8438 199.061 31.8438C200.412 31.8438 201.284 31.5146 201.727 30.8375C202.225 30.0744 202.356 29.2145 202.116 28.2816C201.342 25.2724 196.596 22.1079 194.208 20.6803ZM200.559 30.0753C200.502 30.1631 200.224 30.4501 199.062 30.4501C199.061 30.4501 199.061 30.4501 199.061 30.4501C197.454 30.4501 195.247 29.9014 193.771 29.474L194.13 22.2646C196.693 23.8667 200.211 26.4727 200.766 28.6309C200.906 29.1754 200.838 29.6479 200.559 30.0753ZM192.331 30.3413C192.329 30.3883 192.316 30.4366 192.299 30.4859C192.2 30.7645 191.875 31.0565 191.473 31.1053L191.038 31.1588C190.996 30.8807 190.905 30.6092 190.762 30.359L185.659 21.4526L191.834 20.3403L192.305 20.2557C192.358 20.2463 192.409 20.2417 192.457 20.2417C192.59 20.2417 192.701 20.278 192.761 20.3412C192.777 20.358 192.825 20.4087 192.819 20.5328L192.811 20.6803L192.359 29.7721L192.331 30.3413ZM189.305 32.3158L188.669 32.8144L187.371 33.8323L187.221 33.95C187.058 34.0783 186.824 34.1439 186.586 34.1536C186.341 34.1634 186.094 34.1108 185.906 33.9965C185.875 33.9779 185.843 33.9611 185.816 33.9393L180.893 29.9548L178.97 28.3989L177.322 27.0656C177.266 27.02 177.223 26.9689 177.187 26.9159C177.134 26.8359 177.101 26.7494 177.099 26.6605C177.096 26.5131 177.168 26.3657 177.303 26.2453L183.14 21.0308C183.21 20.9681 183.283 20.9313 183.356 20.9076C183.399 20.8937 183.442 20.8788 183.485 20.8788C183.638 20.8788 183.778 20.9755 183.878 21.1499L183.952 21.2796L184.358 21.9893L189.552 31.0518C189.6 31.1365 189.63 31.2309 189.648 31.329C189.692 31.569 189.65 31.8322 189.53 32.0461C189.472 32.1507 189.397 32.2437 189.305 32.3158ZM185.559 35.5594C185.45 36.0533 185.003 36.4346 184.676 36.4458L184.524 36.4509L183.819 36.4751L179.366 36.6276L175.883 36.7467L175.418 36.7624L175.405 37.4089L175.404 37.4563V37.4065V36.7624C175.321 36.7624 175.26 36.7364 175.213 36.6811C175.129 36.5815 175.097 36.4053 175.13 36.21L175.195 35.8157L175.309 35.1209L176.375 28.6463C176.405 28.4612 176.482 28.3184 176.575 28.2557L184.938 35.0237C185.133 35.1809 185.357 35.3009 185.596 35.3906L185.559 35.5594ZM182.721 44.6438C182.461 44.7703 182.208 44.8317 181.947 44.8317C180.016 44.8317 177.867 41.35 176.449 38.1222L183.306 37.8883C183.672 41.0942 183.555 44.2378 182.721 44.6438Z" fill="#010002"/>
<path d="M120.482 25.8982C120.093 23.9754 118.39 22.5233 116.354 22.5233C115.741 22.5233 115.142 22.6575 114.595 22.9092L114.399 22.2793C114.045 21.1401 113.212 20.2179 112.115 19.7495C111.017 19.2809 109.776 19.3172 108.708 19.849C107.931 20.2358 107.004 20.1708 106.288 19.6792L106.117 19.5617C105.319 19.0128 104.348 18.7672 103.384 18.8702C102.421 18.9731 101.524 19.4182 100.859 20.1234L98.8609 22.2432L96.1111 21.218V25.8982H94.2366V28.9674C94.2366 33.7659 96.6275 38.2165 100.632 40.8729L100.842 41.0123H116.186L116.396 40.8729C120.401 38.2165 122.792 33.7659 122.792 28.9674V25.8982H120.482ZM118.75 25.8982H116.017C115.906 25.3492 115.688 24.8385 115.385 24.3891C115.69 24.2632 116.019 24.1964 116.354 24.1964C117.461 24.1965 118.404 24.9085 118.75 25.8982ZM114.285 25.8982H109.493C109.84 24.9085 110.783 24.1964 111.889 24.1964C112.996 24.1965 113.938 24.9085 114.285 25.8982ZM102.077 21.271C102.891 20.4075 104.192 20.2683 105.17 20.9406L105.341 21.0581C106.557 21.8938 108.133 22.0044 109.453 21.3467C110.082 21.0338 110.812 21.0125 111.458 21.2881C112.049 21.5405 112.509 22.0171 112.742 22.6102C112.466 22.5533 112.181 22.5232 111.889 22.5232C109.964 22.5232 108.337 23.8222 107.837 25.5895L100.562 22.8774L102.077 21.271ZM97.7842 23.6274L103.875 25.8982H97.7842V23.6274ZM95.9098 27.5713H121.119C121.119 27.5713 121.116 29.154 121.114 29.2472H95.9141C95.912 29.1541 95.9098 27.5713 95.9098 27.5713ZM115.677 39.3391H101.351C98.4813 37.3543 96.5901 34.3093 96.0614 30.9204H120.967C120.438 34.3093 118.547 37.3542 115.677 39.3391Z" fill="#F1F2F6"/>
<path d="M276.153 25.8905C276.153 24.6929 275.39 23.6732 274.331 23.3032C274.508 22.9394 274.608 22.5304 274.608 22.0982C274.608 20.5893 273.398 19.3618 271.91 19.3618H271.229C270.658 19.3618 270.179 18.9281 270.113 18.3529L269.797 15.5694H267.634C266.348 15.5694 265.163 16.1405 264.385 17.1365C263.877 17.7865 263.582 18.5659 263.521 19.407C262.264 19.6396 261.308 20.7574 261.308 22.0982C261.308 22.5305 261.408 22.9394 261.585 23.3032C260.526 23.6733 259.764 24.693 259.764 25.8905C259.764 26.8228 260.226 27.6472 260.93 28.1415L265.855 44.25H270.062L274.986 28.1416C275.69 27.6473 276.153 26.8228 276.153 25.8905ZM262.462 24.8346H267.787V23.1541H264.006C263.432 23.1541 262.965 22.6804 262.965 22.0982C262.965 21.516 263.432 21.0423 264.006 21.0423H266.346V19.3618H265.19C265.249 18.9215 265.414 18.5252 265.684 18.1802C266.139 17.5976 266.868 17.2499 267.634 17.2499H268.32L268.467 18.5455C268.629 19.9689 269.817 21.0423 271.229 21.0423H271.91C272.484 21.0423 272.951 21.516 272.951 22.0982C272.951 22.6804 272.484 23.1541 271.91 23.1541H270.711V24.8346H273.455C274.029 24.8346 274.496 25.3084 274.496 25.8906C274.496 26.4728 274.029 26.9465 273.455 26.9465H262.462C261.887 26.9465 261.421 26.4728 261.421 25.8906C261.421 25.3084 261.887 24.8346 262.462 24.8346ZM268.841 42.5695H267.076L262.813 28.627H273.103L268.841 42.5695Z" fill="black"/>
</svg>
