<svg width="35" height="16" viewBox="0 0 35 16" fill="none" xmlns="http://www.w3.org/2000/svg">
<path d="M27.6128 10.6175C28.1367 10.6175 28.5612 11.0426 28.5612 11.5666C28.5612 12.0905 28.1367 12.5157 27.6128 12.5157C27.0882 12.5157 26.6637 12.0906 26.6637 11.5666C26.6637 11.0426 27.0882 10.6175 27.6128 10.6175Z" fill="#0A191E"/>
<path d="M2.37338 3.34326L9.04199 0.670674C10.1521 0.225449 11.3216 0 12.5183 0H16.606C18.0704 0 19.5348 0.350684 20.8404 1.01493L26.8827 4.08762L31.2173 4.71961C32.2679 4.8728 33.2285 5.39958 33.9235 6.20335C34.6178 7.0065 35 8.0336 35 9.09502V11.6531C35 12.0482 34.6793 12.3688 34.2843 12.3688H31.2137C31.0598 13.0653 30.707 13.7022 30.1859 14.2104C29.4931 14.884 28.5791 15.2554 27.6121 15.2554C26.6459 15.2554 25.7318 14.884 25.039 14.2104C24.5172 13.7016 24.1637 13.0631 24.0105 12.3688H11.1821C11.0282 13.0653 10.6754 13.7022 10.1536 14.2097C9.46144 14.884 8.54747 15.2554 7.58121 15.2554C6.61427 15.2554 5.70023 14.884 5.00809 14.2104C4.4863 13.7022 4.13343 13.0652 3.97956 12.3688H0.71573C0.320612 12.3688 7.7024e-06 12.0482 7.7024e-06 11.6531V6.85187C-6.16192e-05 5.29868 0.931817 3.92165 2.37338 3.34326ZM9.57451 1.9991L4.42683 4.0626H8.31122L10.0212 1.83593C9.87153 1.88604 9.72264 1.94045 9.57451 1.9991ZM15.9346 1.43152H12.5183C12.388 1.43152 12.2585 1.43439 12.1297 1.44081L10.1163 4.0626H15.9346V1.43152ZM20.1919 2.29114C19.3122 1.84379 18.3481 1.56468 17.3661 1.46945V4.0626H23.6754L20.1919 2.29114ZM31.1214 6.15543C31.4155 7.15102 32.2937 7.89825 33.3573 7.9999C32.9845 7.06447 32.1492 6.34513 31.1214 6.15543ZM27.6128 13.824C28.8596 13.824 29.8702 12.8134 29.8702 11.5666C29.8702 10.3198 28.8596 9.30913 27.6128 9.30913C26.366 9.30913 25.3554 10.3198 25.3554 11.5666C25.3553 12.8134 26.3659 13.824 27.6128 13.824ZM7.58039 13.824C8.8272 13.824 9.83858 12.8134 9.83858 11.5666C9.83858 10.3198 8.8272 9.30913 7.58039 9.30913C6.33358 9.30913 5.32296 10.3198 5.32296 11.5666C5.32296 12.8134 6.33358 13.824 7.58039 13.824ZM1.43146 10.9374H3.94661C4.2465 9.20242 5.761 7.87754 7.58114 7.87754C9.4006 7.87754 10.9151 9.20242 11.215 10.9374H23.9775C24.2774 9.20242 25.7927 7.87754 27.612 7.87754C29.4322 7.87754 30.9467 9.20242 31.2466 10.9374H33.5685V9.44291C31.5407 9.42431 29.8674 7.89832 29.6176 5.93285L26.6078 5.49412H8.66403C8.66403 5.49412 8.66403 5.49412 8.66334 5.49412C8.66334 5.49412 8.66334 5.49412 8.66266 5.49412H4.13343V6.426C4.13343 7.73583 3.06771 8.80156 1.75856 8.80156H1.43146V10.9374ZM1.43146 7.37011H1.75856C2.27822 7.37011 2.70192 6.94642 2.70192 6.42606V5.49419H1.86232C1.5882 5.88213 1.43146 6.35162 1.43146 6.85194V7.37011Z" fill="#0A191E"/>
<path d="M7.58041 10.6175C8.10507 10.6175 8.52951 11.0426 8.52951 11.5666C8.52951 12.0905 8.10507 12.5157 7.58041 12.5157C7.0565 12.5157 6.63206 12.0906 6.63206 11.5666C6.63206 11.0426 7.0565 10.6175 7.58041 10.6175Z" fill="#0A191E"/>
<path d="M15.1623 7.50004H19.9096C20.3049 7.50004 20.6253 7.82051 20.6253 8.21576C20.6253 8.61102 20.3048 8.93149 19.9096 8.93149H15.1623C14.767 8.93149 14.4466 8.61102 14.4466 8.21576C14.4466 7.82051 14.767 7.50004 15.1623 7.50004Z" fill="#0A191E"/>
<path d="M27.6128 10.6175C28.1367 10.6175 28.5612 11.0426 28.5612 11.5666C28.5612 12.0905 28.1367 12.5157 27.6128 12.5157C27.0882 12.5157 26.6637 12.0906 26.6637 11.5666C26.6637 11.0426 27.0882 10.6175 27.6128 10.6175Z" fill="#0A191E"/>
<path d="M7.58041 10.6175C8.10507 10.6175 8.52951 11.0426 8.52951 11.5666C8.52951 12.0905 8.10507 12.5157 7.58041 12.5157C7.0565 12.5157 6.63206 12.0906 6.63206 11.5666C6.63206 11.0426 7.0565 10.6175 7.58041 10.6175Z" fill="#0A191E"/>
<path d="M27.6128 10.6175C28.1367 10.6175 28.5612 11.0426 28.5612 11.5666C28.5612 12.0905 28.1367 12.5157 27.6128 12.5157C27.0882 12.5157 26.6637 12.0906 26.6637 11.5666C26.6637 11.0426 27.0882 10.6175 27.6128 10.6175Z" fill="#0A191E"/>
<path d="M7.58041 10.6175C8.10507 10.6175 8.52951 11.0426 8.52951 11.5666C8.52951 12.0905 8.10507 12.5157 7.58041 12.5157C7.0565 12.5157 6.63206 12.0906 6.63206 11.5666C6.63206 11.0426 7.0565 10.6175 7.58041 10.6175Z" fill="#0A191E"/>
</svg>
