<svg width="329" height="161" viewBox="0 0 329 161" fill="none" xmlns="http://www.w3.org/2000/svg">
<path d="M0 0.860131C0 0.385094 0.385094 0 0.860131 0H3.01046V24.9438H0.860131C0.385094 24.9438 0 24.5587 0 24.0837V0.860131Z" fill="white"/>
<path d="M0.860026 48.5972C0.860026 48.1222 1.24512 47.7371 1.72016 47.7371H3.01035V97.6247H1.72016C1.24512 97.6247 0.860026 97.2396 0.860026 96.7645V48.5972Z" fill="white"/>
<path d="M0.860026 111.817C0.860026 111.342 1.24512 110.957 1.72016 110.957H3.01035V160.844H1.72016C1.24512 160.844 0.860026 160.459 0.860026 159.984V111.817Z" fill="white"/>
<path d="M329 142.782C329 143.257 328.615 143.642 328.14 143.642L326.85 143.642L326.85 64.5097L328.14 64.5097C328.615 64.5097 329 64.8948 329 65.3698L329 142.782Z" fill="white"/>
</svg>
