<svg width="326" height="160" viewBox="0 0 326 160" fill="none" xmlns="http://www.w3.org/2000/svg">
<path d="M0 0.852287C0 0.381581 0.381582 0 0.852288 0H2.98301V24.7163H0.852288C0.381582 24.7163 0 24.3348 0 23.8641V0.852287Z" fill="white"/>
<path d="M0.852423 48.1539C0.852423 47.6832 1.234 47.3016 1.70471 47.3016H2.98314V96.7343H1.70471C1.234 96.7343 0.852423 96.3527 0.852423 95.882V48.1539Z" fill="white"/>
<path d="M0.852423 110.797C0.852423 110.327 1.234 109.945 1.70471 109.945H2.98314V159.378H1.70471C1.234 159.378 0.852423 158.996 0.852423 158.525V110.797Z" fill="white"/>
<path d="M326 141.48C326 141.95 325.618 142.332 325.148 142.332L323.869 142.332L323.869 63.9214L325.148 63.9214C325.618 63.9214 326 64.303 326 64.7737L326 141.48Z" fill="white"/>
</svg>
