<svg width="153" height="192" viewBox="0 0 153 192" fill="none" xmlns="http://www.w3.org/2000/svg">
<g filter="url(#filter0_dd_0_3)">
<path d="M42.4112 130.826L42.4073 130.825C41.5576 130.473 41 129.64 41 128.717V23.2812C41 22.0199 42.0199 21 43.2812 21H108.906C110.168 21 111.188 22.0198 111.188 23.2812C111.188 23.2813 111.188 23.2813 111.188 23.2814V128.718C111.188 129.64 110.63 130.473 109.78 130.825L109.775 130.827C108.953 131.173 107.958 130.995 107.294 130.33C104.56 127.597 100.128 127.597 97.3942 130.33C96.5031 131.222 95.0596 131.222 94.1685 130.33C91.4349 127.597 87.0027 127.597 84.2692 130.33C83.3781 131.222 81.9346 131.222 81.0435 130.33C78.3099 127.597 73.8778 127.597 71.1442 130.33C70.2531 131.222 68.8096 131.222 67.9185 130.33C65.1849 127.597 60.7527 127.597 58.0192 130.33C57.1281 131.222 55.6846 131.222 54.7935 130.33C52.06 127.597 47.6278 127.597 44.8942 130.33C44.2376 130.987 43.2526 131.178 42.4112 130.826Z" fill="url(#paint0_linear_0_3)" stroke="url(#paint1_linear_0_3)" stroke-width="2"/>
<path d="M76.0941 55.303C74.2868 55.303 72.8128 53.8321 72.8128 52.0217C72.8128 50.2114 74.2868 48.7405 76.0941 48.7405C77.9014 48.7405 79.3753 50.2114 79.3753 52.0217C79.3753 53.8354 80.8429 55.303 82.6566 55.303C84.4702 55.303 85.9378 53.8354 85.9378 52.0217C85.9378 47.7495 83.1868 44.1415 79.3753 42.7824V38.8967C79.3753 37.0831 77.9077 35.6155 76.0941 35.6155C74.2804 35.6155 72.8128 37.0831 72.8128 38.8967V42.7824C69.0013 44.1415 66.2503 47.7495 66.2503 52.0217C66.2503 57.4498 70.666 61.8655 76.0941 61.8655C77.9014 61.8655 79.3753 63.3364 79.3753 65.1467C79.3753 66.9571 77.9014 68.428 76.0941 68.428C74.2868 68.428 72.8128 66.9571 72.8128 65.1467C72.8128 63.3331 71.3452 61.8655 69.5316 61.8655C67.7179 61.8655 66.2503 63.3331 66.2503 65.1467C66.2503 69.4189 69.0013 73.027 72.8128 74.3861V78.2717C72.8128 80.0854 74.2804 81.553 76.0941 81.553C77.9077 81.553 79.3753 80.0854 79.3753 78.2717V74.3861C83.1868 73.0272 85.9378 69.4189 85.9378 65.1467C85.9378 59.7187 81.5224 55.303 76.0941 55.303ZM76.0941 88.1155H56.4066C54.5929 88.1155 53.1253 89.5831 53.1253 91.3967C53.1253 93.2104 54.5929 94.678 56.4066 94.678H76.0941C77.9077 94.678 79.3753 93.2104 79.3753 91.3967C79.3753 89.5831 77.9077 88.1155 76.0941 88.1155ZM76.0941 101.24H56.4066C54.5929 101.24 53.1253 102.708 53.1253 104.522C53.1253 106.335 54.5929 107.803 56.4066 107.803H76.0941C77.9077 107.803 79.3753 106.335 79.3753 104.522C79.3753 102.708 77.9077 101.24 76.0941 101.24ZM89.2191 94.678H95.7816C97.5952 94.678 99.0628 93.2104 99.0628 91.3967C99.0628 89.5831 97.5952 88.1155 95.7816 88.1155H89.2191C87.4054 88.1155 85.9378 89.5831 85.9378 91.3967C85.9378 93.2104 87.4054 94.678 89.2191 94.678ZM95.7816 101.24H89.2191C87.4054 101.24 85.9378 102.708 85.9378 104.522C85.9378 106.335 87.4054 107.803 89.2191 107.803H95.7816C97.5952 107.803 99.0628 106.335 99.0628 104.522C99.0628 102.708 97.5952 101.24 95.7816 101.24Z" fill="white"/>
</g>
<defs>
<filter id="filter0_dd_0_3" x="0" y="0" width="152.188" height="192" filterUnits="userSpaceOnUse" color-interpolation-filters="sRGB">
<feFlood flood-opacity="0" result="BackgroundImageFix"/>
<feColorMatrix in="SourceAlpha" type="matrix" values="0 0 0 0 0 0 0 0 0 0 0 0 0 0 0 0 0 0 127 0" result="hardAlpha"/>
<feOffset dy="20"/>
<feGaussianBlur stdDeviation="20"/>
<feColorMatrix type="matrix" values="0 0 0 0 1 0 0 0 0 0.680498 0 0 0 0 0 0 0 0 0.29 0"/>
<feBlend mode="normal" in2="BackgroundImageFix" result="effect1_dropShadow_0_3"/>
<feColorMatrix in="SourceAlpha" type="matrix" values="0 0 0 0 0 0 0 0 0 0 0 0 0 0 0 0 0 0 127 0" result="hardAlpha"/>
<feOffset dy="5"/>
<feGaussianBlur stdDeviation="5"/>
<feColorMatrix type="matrix" values="0 0 0 0 1 0 0 0 0 0.680498 0 0 0 0 0 0 0 0 0.26 0"/>
<feBlend mode="normal" in2="effect1_dropShadow_0_3" result="effect2_dropShadow_0_3"/>
<feBlend mode="normal" in="SourceGraphic" in2="effect2_dropShadow_0_3" result="shape"/>
</filter>
<linearGradient id="paint0_linear_0_3" x1="76.0939" y1="-22.8026" x2="76.0939" y2="169.452" gradientUnits="userSpaceOnUse">
<stop offset="0.630208" stop-color="#FFAE00"/>
<stop offset="1" stop-color="#FFCD1E"/>
</linearGradient>
<linearGradient id="paint1_linear_0_3" x1="76.0939" y1="20" x2="76.0939" y2="132" gradientUnits="userSpaceOnUse">
<stop stop-color="#FF9F00"/>
<stop offset="1" stop-color="#FFB800"/>
</linearGradient>
</defs>
</svg>
