<svg width="42" height="42" viewBox="0 0 42 42" fill="none" xmlns="http://www.w3.org/2000/svg">
<path d="M21 7C16.1683 7 12.25 10.9183 12.25 15.75C12.2728 18.676 13.7865 21.2415 16.0685 22.7308L17.5 26.25C17.017 26.25 16.625 26.642 16.625 27.125C16.625 27.608 17.017 28 17.5 28C17.017 28 16.625 28.392 16.625 28.875C16.625 29.358 17.017 29.75 17.5 29.75C17.017 29.75 16.625 30.142 16.625 30.625C16.625 31.108 17.017 31.5 17.5 31.5C17.017 31.5 16.625 31.892 16.625 32.375C16.625 32.858 17.017 33.25 17.5 33.25H18.2175C18.816 34.2125 19.8188 34.8757 20.9843 34.9982C22.1813 34.874 23.1858 34.2125 23.7738 33.2657L24.5 33.25C24.983 33.25 25.375 32.858 25.375 32.375C25.375 31.892 24.983 31.5 24.5 31.5C24.983 31.5 25.375 31.108 25.375 30.625C25.375 30.142 24.983 29.75 24.5 29.75C24.983 29.75 25.375 29.358 25.375 28.875C25.375 28.392 24.983 28 24.5 28C24.983 28 25.375 27.608 25.375 27.125C25.375 26.642 24.983 26.25 24.5 26.25L25.9 22.75C28.2135 21.2415 29.7272 18.676 29.75 15.7535C29.75 10.9182 25.8317 7 21 7ZM24.9375 21.3675L24.5 21.665L24.3075 22.1725L22.75 25.9175C22.6765 26.1118 22.4927 26.2482 22.2775 26.25H19.635C19.4547 26.215 19.3095 26.0872 19.2517 25.921L17.7275 22.1725L17.5 21.665L17.0625 21.35C15.2338 20.125 14.0367 18.081 14 15.7552C14 11.8842 17.1342 8.75 21 8.75C24.8658 8.75 28 11.8842 28 15.75C27.9703 18.088 26.7715 20.1408 24.962 21.3518L24.9375 21.3675Z" fill="white"/>
<path d="M25.0075 12.25C24.003 11.179 22.5803 10.5088 21.0018 10.5L21 12.25C22.0237 12.2535 22.9513 12.6665 23.625 13.335C24.1115 14.0105 24.4282 14.8365 24.4982 15.7325L26.25 15.7483C26.1712 14.4253 25.7162 13.223 24.9935 12.229L25.0075 12.25Z" fill="white"/>
</svg>
