<svg width="314" height="654" viewBox="0 0 314 654" fill="none" xmlns="http://www.w3.org/2000/svg">
<path fill-rule="evenodd" clip-rule="evenodd" d="M46.9296 0C21.0111 0 0 21.0112 0 46.9296V607.07C0 632.989 21.0111 654 46.9296 654H266.508C292.427 654 313.438 632.989 313.438 607.07V46.9296C313.438 21.0111 292.427 0 266.508 0H46.9296ZM46.499 10.3333C26.5251 10.3333 10.3331 26.5252 10.3331 46.4991V607.071C10.3331 627.045 26.5251 643.237 46.499 643.237H266.939C286.913 643.237 303.105 627.045 303.105 607.071V46.4991C303.105 26.5253 286.913 10.3333 266.939 10.3333H46.499Z" fill="white"/>
</svg>
