<svg width="310" height="647" viewBox="0 0 310 647" fill="none" xmlns="http://www.w3.org/2000/svg">
<path fill-rule="evenodd" clip-rule="evenodd" d="M46.4148 0C20.7806 0 0 20.7806 0 46.4148V600.412C0 626.046 20.7806 646.827 46.4148 646.827H263.585C289.219 646.827 310 626.046 310 600.412V46.4148C310 20.7806 289.219 0 263.585 0H46.4148ZM45.9891 10.2198C26.2343 10.2198 10.2199 26.2342 10.2199 45.989V600.412C10.2199 620.167 26.2343 636.181 45.9891 636.181H264.011C283.766 636.181 299.78 620.167 299.78 600.412V45.9891C299.78 26.2343 283.766 10.2198 264.011 10.2198H45.9891Z" fill="white"/>
</svg>
